<svg width="38" height="36" viewBox="0 0 38 36" fill="none" xmlns="http://www.w3.org/2000/svg">
<path d="M18.7629 31.8866C20.6177 31.8866 22.1222 30.3821 22.1222 28.5258H15.4037C15.4037 30.3821 16.9082 31.8866 18.7629 31.8866ZM30.0737 24.0249C29.0591 22.9347 27.1608 21.2948 27.1608 15.9227C27.1608 11.8424 24.2999 8.57613 20.4423 7.77478V6.68041C20.4423 5.75251 19.6903 5 18.7629 5C17.8356 5 17.0836 5.75251 17.0836 6.68041V7.77478C13.226 8.57613 10.3651 11.8424 10.3651 15.9227C10.3651 21.2948 8.46672 22.9347 7.45217 24.0249C7.1371 24.3636 6.99741 24.7685 7.00004 25.165C7.00581 26.0262 7.68165 26.8454 8.6857 26.8454H28.8402C29.8442 26.8454 30.5206 26.0262 30.5258 25.165C30.5285 24.7685 30.3888 24.3631 30.0737 24.0249Z" fill="#EFCE7B"/>
</svg>
