<svg width="24" height="27" viewBox="0 0 24 27" fill="none" xmlns="http://www.w3.org/2000/svg">
<path d="M11.7629 26.8866C13.6177 26.8866 15.1222 25.3821 15.1222 23.5258H8.40368C8.40368 25.3821 9.90817 26.8866 11.7629 26.8866ZM23.0737 19.0249C22.0591 17.9347 20.1608 16.2948 20.1608 10.9227C20.1608 6.84243 17.2999 3.57613 13.4423 2.77478V1.68041C13.4423 0.75251 12.6903 0 11.7629 0C10.8356 0 10.0836 0.75251 10.0836 1.68041V2.77478C6.22597 3.57613 3.36506 6.84243 3.36506 10.9227C3.36506 16.2948 1.46672 17.9347 0.452173 19.0249C0.137095 19.3636 -0.00258934 19.7685 3.63068e-05 20.165C0.00581273 21.0262 0.681654 21.8454 1.6857 21.8454H21.8402C22.8442 21.8454 23.5206 21.0262 23.5258 20.165C23.5285 19.7685 23.3888 19.3631 23.0737 19.0249Z" fill="#EFCE7B"/>
</svg>
