<svg width="38" height="36" viewBox="0 0 38 36" fill="none" xmlns="http://www.w3.org/2000/svg">
<path fill-rule="evenodd" clip-rule="evenodd" d="M32 6C32 5.44772 31.5523 5 31 5H22.4142C22.149 5 21.8946 5.10536 21.7071 5.29289L18 9H6C5.44772 9 5 9.44772 5 10V28C5 28.5523 5.44771 29 6 29H31C31.5523 29 32 28.5523 32 28V10.5V10V6ZM31 9V7C31 6.44772 30.5523 6 30 6H22.8284C22.5632 6 22.3089 6.10536 22.1213 6.29289L19.4142 9H31Z" fill="#EFCE7B"/>
<path d="M33.5698 20.8383L33.1058 20.652L33.5698 20.8383C33.7937 20.2807 33.6633 19.6432 33.2383 19.2184L32.7624 18.7426C32.3342 18.3146 31.6906 18.1859 31.1308 18.4165L29.6467 19.0276C29.6031 19.0456 29.5401 19.049 29.4699 19.02C29.4002 18.9912 29.3581 18.945 29.3397 18.9019L28.7036 17.4113C28.4678 16.8586 27.9249 16.5 27.324 16.5H26.6506C26.0455 16.5 25.4996 16.8636 25.2664 17.422L24.656 18.8837C24.635 18.9339 24.588 18.9842 24.5148 19.0135C24.4357 19.0451 24.3646 19.042 24.3138 19.0216L22.8383 18.4288C22.2807 18.2048 21.6433 18.3351 21.2184 18.76L20.7427 19.2357C20.3146 19.6638 20.1858 20.3072 20.4161 20.867L21.008 22.3058C21.0307 22.3611 21.0343 22.4393 20.9993 22.5264C20.9687 22.6026 20.9165 22.6522 20.8634 22.6749L19.4103 23.2963C18.8581 23.5324 18.5 24.075 18.5 24.6755V25.3488C18.5 25.9544 18.8641 26.5006 19.4231 26.7334L20.8644 27.3339C20.9189 27.3566 20.9728 27.4071 21.0046 27.4853C21.0389 27.5696 21.0361 27.6465 21.014 27.7017L20.4282 29.1622C20.2046 29.7196 20.335 30.3566 20.7597 30.7813L21.086 30.4549L20.7597 30.7813L21.2355 31.2571C21.6637 31.6853 22.3074 31.8141 22.8674 31.5835L24.3231 30.984C24.3728 30.9635 24.445 30.9594 24.5274 30.9915C24.6001 31.0199 24.6465 31.0688 24.6674 31.1177L25.2963 32.5894C25.5323 33.1417 26.075 33.5 26.6756 33.5H27.3485C27.9543 33.5 28.5006 33.1356 28.7334 32.5763L29.352 31.0898C29.3703 31.0458 29.4117 31.001 29.4753 30.9749C29.5465 30.9459 29.6106 30.9486 29.6572 30.9673L31.1621 31.5702C31.7193 31.7935 32.3561 31.663 32.7806 31.2385L33.2563 30.7628C33.6848 30.3343 33.8134 29.6902 33.5823 29.1301L32.965 27.6338C32.9482 27.593 32.9441 27.5318 32.9716 27.4621C32.9947 27.4035 33.0346 27.3661 33.0752 27.3488L34.5883 26.7036C35.1412 26.4678 35.5 25.9248 35.5 25.3238V24.6512C35.5 24.0456 35.1359 23.4995 34.5769 23.2666L33.0784 22.6422C33.0388 22.6257 32.9945 22.5864 32.9672 22.5192C32.9405 22.4539 32.9439 22.3966 32.9595 22.3577L33.5698 20.8383ZM26.9845 27.5C25.6046 27.5 24.4845 26.3799 24.4845 25C24.4845 23.6201 25.6046 22.5 26.9845 22.5C28.3644 22.5 29.4845 23.6201 29.4845 25C29.4845 26.3799 28.3644 27.5 26.9845 27.5Z" fill="#4A84BD" stroke="#F3F3F3"/>
<circle cx="27" cy="25" r="3" fill="#F3F3F3"/>
</svg>
