<svg width="31" height="29" viewBox="0 0 31 29" fill="none" xmlns="http://www.w3.org/2000/svg">
<path fill-rule="evenodd" clip-rule="evenodd" d="M27 1C27 0.447715 26.5523 0 26 0H17.4142C17.149 0 16.8946 0.105357 16.7071 0.292893L13 4H1C0.447715 4 0 4.44772 0 5V23C0 23.5523 0.447715 24 0.999999 24H26C26.5523 24 27 23.5523 27 23V5.5V5V1ZM26 4V2C26 1.44772 25.5523 1 25 1H17.8284C17.5632 1 17.3089 1.10536 17.1213 1.29289L14.4142 4H26Z" fill="#EFCE7B"/>
<path d="M28.5698 15.8383L28.1058 15.652L28.5698 15.8383C28.7937 15.2807 28.6633 14.6432 28.2383 14.2184L27.7624 13.7426C27.3342 13.3146 26.6906 13.1859 26.1308 13.4165L24.6467 14.0276C24.6031 14.0456 24.5401 14.049 24.4699 14.02C24.4002 13.9912 24.3581 13.945 24.3397 13.9019L23.7036 12.4113C23.4678 11.8586 22.9249 11.5 22.324 11.5H21.6506C21.0455 11.5 20.4996 11.8636 20.2664 12.422L19.656 13.8837C19.635 13.9339 19.588 13.9842 19.5148 14.0135C19.4357 14.0451 19.3646 14.042 19.3138 14.0216L17.8383 13.4288C17.2807 13.2048 16.6433 13.3351 16.2184 13.76L15.7427 14.2357C15.3146 14.6638 15.1858 15.3072 15.4161 15.867L16.008 17.3058C16.0307 17.3611 16.0343 17.4393 15.9993 17.5264C15.9687 17.6026 15.9165 17.6522 15.8634 17.6749L14.4103 18.2963C13.8581 18.5324 13.5 19.075 13.5 19.6755V20.3488C13.5 20.9544 13.8641 21.5006 14.4231 21.7334L15.8644 22.3339C15.9189 22.3566 15.9728 22.4071 16.0046 22.4853C16.0389 22.5696 16.0361 22.6465 16.014 22.7017L15.4282 24.1622C15.2046 24.7196 15.335 25.3566 15.7597 25.7813L16.086 25.4549L15.7597 25.7813L16.2355 26.2571C16.6637 26.6853 17.3074 26.8141 17.8674 26.5835L19.3231 25.984C19.3728 25.9635 19.445 25.9594 19.5274 25.9915C19.6001 26.0199 19.6465 26.0688 19.6674 26.1177L20.2963 27.5894C20.5323 28.1417 21.075 28.5 21.6756 28.5H22.3485C22.9543 28.5 23.5006 28.1356 23.7334 27.5763L24.352 26.0898C24.3703 26.0458 24.4117 26.001 24.4753 25.9749C24.5465 25.9459 24.6106 25.9486 24.6572 25.9673L26.1621 26.5702C26.7193 26.7935 27.3561 26.663 27.7806 26.2385L28.2563 25.7628C28.6848 25.3343 28.8134 24.6902 28.5823 24.1301L27.965 22.6338C27.9482 22.593 27.9441 22.5318 27.9716 22.4621C27.9947 22.4035 28.0346 22.3661 28.0752 22.3488L29.5883 21.7036C30.1412 21.4678 30.5 20.9248 30.5 20.3238V19.6512C30.5 19.0456 30.1359 18.4995 29.5769 18.2666L28.0784 17.6422C28.0388 17.6257 27.9945 17.5864 27.9672 17.5192C27.9405 17.4539 27.9439 17.3966 27.9595 17.3577L28.5698 15.8383ZM21.9845 22.5C20.6046 22.5 19.4845 21.3799 19.4845 20C19.4845 18.6201 20.6046 17.5 21.9845 17.5C23.3644 17.5 24.4845 18.6201 24.4845 20C24.4845 21.3799 23.3644 22.5 21.9845 22.5Z" fill="#4A84BD" stroke="#F3F3F3"/>
<circle cx="22" cy="20" r="3" fill="#F3F3F3"/>
</svg>
