<svg width="27" height="27" viewBox="0 0 27 27" fill="none" xmlns="http://www.w3.org/2000/svg">
<path d="M1 10.361C1 9.7309 1.2969 9.13768 1.80123 8.76004L11.1025 1.79528C12.5237 0.73107 14.4763 0.731069 15.8975 1.79528L25.1988 8.76004C25.7031 9.13768 26 9.7309 26 10.361V24C26 25.1046 25.1046 26 24 26H3C1.89543 26 1 25.1046 1 24V10.361Z" fill="white"/>
<path d="M1 25V10.4806C1 10.1768 1.13809 9.88953 1.37531 9.69976L11.6259 1.49927C12.7216 0.622743 14.2784 0.622744 15.3741 1.49927L25.6247 9.69976C25.8619 9.88953 26 10.1768 26 10.4806V25C26 25.5523 25.5523 26 25 26H2C1.44772 26 1 25.5523 1 25Z" stroke="#6B6B5A"/>
<path d="M4 12L12.4814 18.9591C13.2189 19.5642 14.2811 19.5642 15.0186 18.9591L23.5 12" stroke="#6B6B5A"/>
</svg>
