<svg width="38" height="36" viewBox="0 0 38 36" fill="none" xmlns="http://www.w3.org/2000/svg">
<path d="M7 15.361C7 14.7309 7.2969 14.1377 7.80123 13.76L17.1025 6.79528C18.5237 5.73107 20.4763 5.73107 21.8975 6.79528L31.1988 13.76C31.7031 14.1377 32 14.7309 32 15.361V29C32 30.1046 31.1046 31 30 31H9C7.89543 31 7 30.1046 7 29V15.361Z" fill="white"/>
<path d="M7 30V15.4806C7 15.1768 7.13809 14.8895 7.37531 14.6998L17.6259 6.49927C18.7216 5.62274 20.2784 5.62274 21.3741 6.49927L31.6247 14.6998C31.8619 14.8895 32 15.1768 32 15.4806V30C32 30.5523 31.5523 31 31 31H8C7.44772 31 7 30.5523 7 30Z" stroke="#6B6B5A"/>
<path d="M10 17L18.4814 23.9591C19.2189 24.5642 20.2811 24.5642 21.0186 23.9591L29.5 17" stroke="#6B6B5A"/>
</svg>
