<svg width="38" height="36" viewBox="0 0 38 36" fill="none" xmlns="http://www.w3.org/2000/svg">
<path d="M8 5V32H28V12H21V5H8Z" fill="#F7F7F7" stroke="#84847B"/>
<path d="M21 12V5L28 12H21Z" fill="#F7F7F7" stroke="#84847B" stroke-linejoin="bevel"/>
<path fill-rule="evenodd" clip-rule="evenodd" d="M18.1429 28.2303V25.6071H16.1166C16.2287 25.9219 16.3529 26.2152 16.4872 26.4839C17.0089 27.5273 17.6051 28.0662 18.1429 28.2303ZM15.8933 24.8929H18.1429V21.8571H15.4687C15.4959 22.9644 15.6488 23.9944 15.8933 24.8929ZM14.7542 21.8571C14.7797 22.9459 14.9213 23.9739 15.1548 24.8929H12.6221C12.1007 23.9915 11.7807 22.9591 11.7235 21.8571H14.7542ZM15.4687 21.1429H18.1429V17.7321H16.0031C15.6948 18.7143 15.4998 19.8782 15.4687 21.1429ZM15.2569 17.7321C14.9627 18.7428 14.7832 19.9035 14.7542 21.1429H11.7235C11.7894 19.8725 12.2046 18.6946 12.875 17.7033V17.7321H15.2569ZM16.26 17.0179H18.1429V14.7697C17.6051 14.9338 17.0089 15.4727 16.4872 16.5161C16.4078 16.675 16.3319 16.8424 16.26 17.0179ZM15.493 17.0179H13.4052C14.2571 16.0502 15.3804 15.3272 16.6561 14.9678C16.2006 15.4832 15.8045 16.1835 15.493 17.0179ZM13.0979 25.6071H15.3618C15.6897 26.6074 16.1339 27.4414 16.6561 28.0322C15.2206 27.6278 13.978 26.7629 13.0979 25.6071ZM20.5128 26.4839C19.9911 27.5273 19.3949 28.0662 18.8571 28.2303V25.6071H20.8834C20.7713 25.9219 20.6471 26.2152 20.5128 26.4839ZM21.6382 25.6071C21.3103 26.6074 20.8661 27.4414 20.3439 28.0322C21.7794 27.6278 23.022 26.7629 23.9021 25.6071H21.6382ZM24.3779 24.8929H21.8452C22.0787 23.9739 22.2203 22.9459 22.2458 21.8571H25.2765C25.2193 22.9591 24.8993 23.9915 24.3779 24.8929ZM25.2765 21.1429C25.2112 19.8848 24.8034 18.7174 24.1444 17.7321H21.7431C22.0373 18.7428 22.2168 19.9035 22.2458 21.1429H25.2765ZM21.5313 21.1429C21.5002 19.8782 21.3052 18.7143 20.9969 17.7321H18.8571V21.1429H21.5313ZM21.507 17.0179H23.5948C22.7429 16.0502 21.6196 15.3272 20.3439 14.9678C20.7994 15.4832 21.1955 16.1835 21.507 17.0179ZM20.74 17.0179H18.8571V14.7697C19.3949 14.9338 19.9911 15.4727 20.5128 16.5161C20.5922 16.675 20.6681 16.8424 20.74 17.0179ZM21.5313 21.8571C21.5041 22.9644 21.3512 23.9944 21.1067 24.8929H18.8571V21.8571H21.5313ZM26 21.5C26 17.3579 22.6421 14 18.5 14C14.3579 14 11 17.3579 11 21.5C11 25.6421 14.3579 29 18.5 29C22.6421 29 26 25.6421 26 21.5Z" fill="#4A84BD"/>
<rect x="17" y="26" width="6" height="5" fill="#F7F7F7"/>
<path d="M28.3314 28.6541L28.3314 28.6544C28.362 31.6488 25.9636 34.0075 23.0227 33.9877C23.0113 33.9878 23.0019 33.9877 22.9986 33.9877L22.9978 33.9877L19.9463 33.9549C16.9829 33.923 14.5503 31.4901 14.5185 28.5271M28.3314 28.6541L21.4083 26.2003C21.6376 25.7255 21.9361 25.2938 22.2863 24.9164C22.901 24.254 22.3899 23.2208 21.537 23.2117L19.8521 23.1936C19.8521 23.1936 19.8521 23.1936 19.852 23.1936C16.8805 23.1614 14.4863 25.5555 14.5185 28.5271M28.3314 28.6541C28.328 28.3377 28.2967 28.0217 28.2381 27.7099L28.2381 27.7098C28.1485 27.2343 27.7362 26.8741 27.2408 26.8688L26.2847 26.8585C25.7579 26.8529 25.2942 27.0747 24.9746 27.4198L24.9743 27.4201C24.8663 27.5369 24.788 27.6776 24.7452 27.8304C24.7025 27.9832 24.6967 28.1434 24.727 28.2983L25.2177 28.2021M28.3314 28.6541L19.9294 30.3861M14.5185 28.5271L15.0185 28.5217L14.5185 28.5271ZM19.9294 30.3861H19.9294L22.9807 30.4191C22.9807 30.4191 22.9808 30.4191 22.9808 30.4191C23.9798 30.4298 24.7733 29.6325 24.7626 28.6373C24.761 28.5067 24.7445 28.3877 24.7269 28.2977L25.2177 28.2021M19.9294 30.3861C18.9205 30.3752 18.0882 29.5366 18.0872 28.5258C18.0863 27.5404 18.8954 26.7519 19.8984 26.7627L20.4927 26.7691C20.887 26.7733 21.2401 26.5484 21.4082 26.2003L19.9294 30.3861ZM25.2177 28.2021C25.2395 28.314 25.2606 28.464 25.2625 28.6319L25.2268 27.965C25.2053 28.0419 25.2022 28.123 25.2177 28.2021ZM20.9185 28.5958L20.9185 28.5955C20.8879 25.6011 23.2864 23.2425 26.2272 23.2622C26.2386 23.2621 26.248 23.2622 26.2513 23.2622L26.2521 23.2622L29.3036 23.295C32.267 23.3269 34.6995 25.7598 34.7314 28.7228C34.7314 28.7228 34.7314 28.7228 34.7314 28.7228L34.2314 28.7282L20.9185 28.5958ZM20.9185 28.5958C20.9219 28.9122 20.9532 29.2282 21.0118 29.54L21.0119 29.5401C21.1014 30.0156 21.5138 30.3757 22.0091 30.381L22.0091 30.381L22.9652 30.3913C22.9652 30.3913 22.9652 30.3913 22.9652 30.3913C23.492 30.397 23.9557 30.1751 24.2753 29.8301L24.2756 29.8298C24.3836 29.7129 24.4619 29.5723 24.5047 29.4194C24.5474 29.2667 24.5532 29.1064 24.5229 28.9515L24.0322 29.0478L24.523 28.9521C24.5055 28.8622 24.4889 28.7431 24.4873 28.6126C24.4766 27.6174 25.2701 26.82 26.2691 26.8307C26.2692 26.8307 26.2692 26.8307 26.2692 26.8307L29.3205 26.8638L29.3205 26.8638C30.3294 26.8746 31.1617 27.7132 31.1627 28.724C31.1636 29.7094 30.3545 30.498 29.3515 30.4872L28.7572 30.4808C28.3629 30.4766 28.0099 30.7014 27.8417 31.0495C27.6123 31.5243 27.3139 31.956 26.9636 32.3335L26.9636 32.3335C26.349 32.9959 26.8599 34.029 27.7129 34.0382L29.3978 34.0563M20.9185 28.5958L29.3978 34.0563M29.3978 34.0563C29.3978 34.0563 29.3978 34.0563 29.3979 34.0563L29.3978 34.0563Z" fill="#4A84BD" stroke="#F3F3F3"/>
</svg>
