<svg width="30" height="37" viewBox="0 0 30 37" fill="none" xmlns="http://www.w3.org/2000/svg">
<path d="M1 1V28H21V8H14V1H1Z" fill="#F7F7F7" stroke="#D1D1D1"/>
<path d="M14 8V1L21 8H14Z" fill="#F7F7F7" stroke="#D1D1D1" stroke-linejoin="bevel"/>
<path fill-rule="evenodd" clip-rule="evenodd" d="M11.1429 24.2303V21.6071H9.11658C9.2287 21.9219 9.35289 22.2152 9.48723 22.4839C10.0089 23.5273 10.6051 24.0662 11.1429 24.2303ZM8.89332 20.8929H11.1429V17.8571H8.46867C8.49589 18.9644 8.64881 19.9944 8.89332 20.8929ZM7.75418 17.8571C7.7797 18.9459 7.92129 19.9739 8.15476 20.8929H5.62209C5.10069 19.9915 4.78066 18.9591 4.72352 17.8571H7.75418ZM8.46867 17.1429H11.1429V13.7321H9.00306C8.69482 14.7143 8.49976 15.8782 8.46867 17.1429ZM8.25686 13.7321C7.96268 14.7428 7.78323 15.9035 7.75418 17.1429H4.72352C4.78939 15.8725 5.20464 14.6946 5.875 13.7033V13.7321H8.25686ZM9.25998 13.0179H11.1429V10.7697C10.6051 10.9338 10.0089 11.4727 9.48723 12.5161C9.4078 12.675 9.33192 12.8424 9.25998 13.0179ZM8.49304 13.0179H6.40515C7.25711 12.0502 8.3804 11.3272 9.65607 10.9678C9.20064 11.4832 8.80445 12.1835 8.49304 13.0179ZM6.09794 21.6071H8.36176C8.68969 22.6074 9.13395 23.4414 9.65607 24.0322C8.22057 23.6278 6.97803 22.7629 6.09794 21.6071ZM13.5128 22.4839C12.9911 23.5273 12.3949 24.0662 11.8571 24.2303V21.6071H13.8834C13.7713 21.9219 13.6471 22.2152 13.5128 22.4839ZM14.6382 21.6071C14.3103 22.6074 13.8661 23.4414 13.3439 24.0322C14.7794 23.6278 16.022 22.7629 16.9021 21.6071H14.6382ZM17.3779 20.8929H14.8452C15.0787 19.9739 15.2203 18.9459 15.2458 17.8571H18.2765C18.2193 18.9591 17.8993 19.9915 17.3779 20.8929ZM18.2765 17.1429C18.2112 15.8848 17.8034 14.7174 17.1444 13.7321H14.7431C15.0373 14.7428 15.2168 15.9035 15.2458 17.1429H18.2765ZM14.5313 17.1429C14.5002 15.8782 14.3052 14.7143 13.9969 13.7321H11.8571V17.1429H14.5313ZM14.507 13.0179H16.5948C15.7429 12.0502 14.6196 11.3272 13.3439 10.9678C13.7994 11.4832 14.1955 12.1835 14.507 13.0179ZM13.74 13.0179H11.8571V10.7697C12.3949 10.9338 12.9911 11.4727 13.5128 12.5161C13.5922 12.675 13.6681 12.8424 13.74 13.0179ZM14.5313 17.8571C14.5041 18.9644 14.3512 19.9944 14.1067 20.8929H11.8571V17.8571H14.5313ZM19 17.5C19 13.3579 15.6421 10 11.5 10C7.35786 10 4 13.3579 4 17.5C4 21.6421 7.35786 25 11.5 25C15.6421 25 19 21.6421 19 17.5Z" fill="#C6D5E4"/>
<path d="M21.3314 24.6542L21.3314 24.6544C21.3621 27.6488 18.9636 30.0075 16.0227 29.9877C16.0114 29.9879 16.002 29.9878 15.9987 29.9877L15.9979 29.9877L12.9463 29.9549C9.9829 29.923 7.55039 27.4901 7.51855 24.5271C7.48635 21.5556 9.88051 19.1614 12.8521 19.1936C12.8521 19.1936 12.8521 19.1936 12.8521 19.1936L14.5371 19.2117C15.39 19.2209 15.9011 20.254 15.2864 20.9164C14.9361 21.2939 14.6377 21.7256 14.4083 22.2003L21.3314 24.6542ZM21.3314 24.6542C21.328 24.3377 21.2968 24.0218 21.2381 23.7099L21.2381 23.7098C21.1486 23.2344 20.7362 22.8742 20.2408 22.8689H20.2408L19.2848 22.8586C19.2848 22.8586 19.2848 22.8586 19.2848 22.8586C18.7579 22.8529 18.2942 23.0748 17.9746 23.4198L17.9743 23.4201M21.3314 24.6542L17.9743 23.4201M12.9294 26.3861L12.9295 26.3861L15.9808 26.4192C16.9798 26.4299 17.7733 25.6326 17.7626 24.6373C17.7611 24.5071 17.7446 24.3883 17.7271 24.2984C17.6967 24.1435 17.7026 23.9832 17.7453 23.8305L12.9294 26.3861ZM12.9294 26.3861C11.9206 26.3753 11.0882 25.5367 11.0872 24.5259C11.0863 23.5405 11.8955 22.7519 12.8985 22.7627L13.4928 22.7691C13.887 22.7734 14.2401 22.5485 14.4083 22.2004L12.9294 26.3861ZM17.9743 23.4201C17.8663 23.537 17.788 23.6776 17.7453 23.8305L17.9743 23.4201ZM13.9186 24.5958L13.9186 24.5956C13.8879 21.6012 16.2864 19.2425 19.2273 19.2623C19.2386 19.2621 19.2481 19.2622 19.2513 19.2623L19.2521 19.2623L19.2521 19.2623L22.3037 19.2951C25.2671 19.327 27.6996 21.7599 27.7314 24.7229C27.7636 27.6944 25.3695 30.0886 22.3979 30.0563C22.3979 30.0563 22.3979 30.0563 22.3979 30.0563L20.7129 30.0382C19.86 30.0291 19.349 28.9959 19.9636 28.3336L19.9636 28.3336C20.3139 27.9561 20.6123 27.5244 20.8417 27.0496C21.0099 26.7015 21.363 26.4766 21.7572 26.4808L22.3515 26.4872L22.3515 26.4872C23.3545 26.498 24.1637 25.7095 24.1628 24.7241C24.1618 23.7133 23.3294 22.8747 22.3206 22.8638L22.3205 22.8638L19.2692 22.8308C19.2692 22.8308 19.2692 22.8308 19.2692 22.8308C18.2702 22.8201 17.4768 23.6173 17.4874 24.6125C17.4889 24.743 17.5055 24.862 17.523 24.952L13.9186 24.5958ZM13.9186 24.5958C13.922 24.9123 13.9532 25.2282 14.0119 25.54L14.0119 25.5401M13.9186 24.5958L14.0119 25.5401M14.0119 25.5401C14.1014 26.0156 14.5139 26.3758 15.0092 26.3811H15.0092M14.0119 25.5401L15.0092 26.3811M15.0092 26.3811L15.9652 26.3914M15.0092 26.3811L15.9652 26.3914M16.9085 25.4904L16.9086 25.4904L16.9085 25.4904ZM16.9085 25.4904C16.9624 25.4321 17.0017 25.3617 17.0232 25.2849L16.9085 25.4904ZM15.9652 26.3914C15.9652 26.3914 15.9652 26.3914 15.9652 26.3914H15.9652Z" fill="#C1D1E2" stroke="#F3F3F3"/>
</svg>
