<svg width="33" height="30" viewBox="0 0 33 30" fill="none" xmlns="http://www.w3.org/2000/svg">
<path d="M1 1V25H28V7.22222V1H18.55H1Z" fill="white" stroke="#84847B"/>
<path d="M13 29L13.5135 24.8919L28.212 10.6833C28.6044 10.3041 29.2283 10.3094 29.6141 10.6952L31.3048 12.3859C31.6906 12.7717 31.6959 13.3957 31.3167 13.788L17.1081 28.4865L13 29Z" fill="#4A84BD"/>
<path d="M13.5135 24.8919L13 29L17.1081 28.4865M13.5135 24.8919L28.212 10.6833C28.6043 10.3041 29.2283 10.3094 29.6141 10.6952L31.3048 12.3859C31.6906 12.7717 31.6959 13.3957 31.3167 13.788L17.1081 28.4865M13.5135 24.8919L17.1081 28.4865" stroke="#F3F3F3" stroke-opacity="0.8" stroke-linejoin="bevel"/>
<path d="M26.3513 13.0811L29.4324 16.1621" stroke="#D1DCE8" stroke-linejoin="bevel"/>
<path d="M24 5H10M21 8H10M23 11H10M10 14H24M10 17H21M10 20H18" stroke="#ADADB5"/>
<path d="M8 5H4M8 8H5M8 11H4M8 14H5M8 17H5M8 20H4" stroke="#4A84BD"/>
</svg>
