<svg width="38" height="36" viewBox="0 0 38 36" fill="none" xmlns="http://www.w3.org/2000/svg">
<path d="M8 5V32H28V12H21V5H8Z" fill="white" stroke="#84847B"/>
<path d="M21 12V5L28 12H21Z" fill="white" stroke="#84847B" stroke-linejoin="bevel"/>
<path d="M10.5 19H25.5" stroke="#84847B" stroke-linejoin="bevel"/>
<path d="M25.5 16H19.5M10.5 9H18.5" stroke="#84847B" stroke-linejoin="bevel"/>
<rect x="10.5" y="11.5" width="8" height="5" fill="#BDCEDE"/>
<path d="M10.5 22H25.5M10.5 25H23.5M10.5 28H20.5" stroke="#84847B" stroke-linejoin="bevel"/>
<path d="M16.5 34.5L17 30.5L31.2931 16.6833C31.6854 16.3041 32.3094 16.3094 32.6952 16.6952L34.3048 18.3048C34.6906 18.6906 34.6959 19.3146 34.3167 19.7069L20.5 34L16.5 34.5Z" fill="#4A84BD"/>
<path d="M17 30.5L16.5 34.5L20.5 34M17 30.5L31.2931 16.6833C31.6854 16.3041 32.3094 16.3094 32.6952 16.6952L34.3048 18.3048C34.6906 18.6906 34.6959 19.3146 34.3167 19.7069L20.5 34M17 30.5L20.5 34" stroke="#F3F3F3" stroke-opacity="0.8" stroke-linejoin="bevel"/>
<path d="M30 18L33 21" stroke="#F3F3F3" stroke-linejoin="bevel"/>
</svg>
