<svg width="38" height="36" viewBox="0 0 38 36" fill="none" xmlns="http://www.w3.org/2000/svg">
<path d="M6 7V31H33V13.2222V7H23.55H6Z" fill="white" stroke="#84847B"/>
<path d="M18 35L18.5135 30.8919L33.212 16.6833C33.6044 16.3041 34.2283 16.3094 34.6141 16.6952L36.3048 18.3859C36.6906 18.7717 36.6959 19.3957 36.3167 19.788L22.1081 34.4865L18 35Z" fill="#4A84BD"/>
<path d="M18.5135 30.8919L18 35L22.1081 34.4865M18.5135 30.8919L33.212 16.6833C33.6043 16.3041 34.2283 16.3094 34.6141 16.6952L36.3048 18.3859C36.6906 18.7717 36.6959 19.3957 36.3167 19.788L22.1081 34.4865M18.5135 30.8919L22.1081 34.4865" stroke="#F3F3F3" stroke-opacity="0.8" stroke-linejoin="bevel"/>
<path d="M31.3513 19.0811L34.4324 22.1621" stroke="#D1DCE8" stroke-linejoin="bevel"/>
<path d="M29 11H15M26 14H15M28 17H15M15 20H29M15 23H26M15 26H23" stroke="#ADADB5"/>
<path d="M13 11H9M13 14H10M13 17H9M13 20H10M13 23H10M13 26H9" stroke="#4A84BD"/>
</svg>
