<svg width="34" height="27" viewBox="0 0 34 27" fill="none" xmlns="http://www.w3.org/2000/svg">
<path d="M9.24264 1H27C28.6569 1 30 2.34315 30 4V17.5C30 19.1569 28.6569 20.5 27 20.5H8.74264C7.94699 20.5 7.18393 20.1839 6.62132 19.6213L1.87868 14.8787C1.31607 14.3161 1 13.553 1 12.7574V9.24264C1 8.44699 1.31607 7.68393 1.87868 7.12132L7.12132 1.87868C7.68393 1.31607 8.44699 1 9.24264 1Z" fill="white" stroke="#808080"/>
<path d="M15 8H33V26H22L15 19V8Z" fill="#EDC87E"/>
<path d="M22 26H33V8H15V19M22 26L15 19M22 26V19H15" stroke="#F3F3F3"/>
<circle cx="6" cy="11" r="1.5" stroke="#808080"/>
</svg>
