<svg width="38" height="36" viewBox="0 0 38 36" fill="none" xmlns="http://www.w3.org/2000/svg">
<path d="M12.2426 7H30C31.6569 7 33 8.34315 33 10V23.5C33 25.1569 31.6569 26.5 30 26.5H11.7426C10.947 26.5 10.1839 26.1839 9.62132 25.6213L4.87868 20.8787C4.31607 20.3161 4 19.553 4 18.7574V15.2426C4 14.447 4.31607 13.6839 4.87868 13.1213L10.1213 7.87868C10.6839 7.31607 11.447 7 12.2426 7Z" fill="white" stroke="#808080"/>
<path d="M18 14H36V32H25L18 25V14Z" fill="#EDC87E"/>
<path d="M25 32H36V14H18V25M25 32L18 25M25 32V25H18" stroke="#F3F3F3"/>
<circle cx="9" cy="17" r="1.5" stroke="#808080"/>
</svg>
