<svg  height="100%" viewBox="0 0 17 20" fill="none" xmlns="http://www.w3.org/2000/svg">
<path d="M1 7L8.5 1.5L15.5 7" stroke="#999999" stroke-width="2"/>
<path fill-rule="evenodd" clip-rule="evenodd" d="M13.6667 9.375C13.6667 10.1344 13.0511 10.75 12.2917 10.75C11.5323 10.75 10.9167 10.1344 10.9167 9.375C10.9167 8.61561 11.5323 8 12.2917 8C13.0511 8 13.6667 8.61561 13.6667 9.375ZM13.6667 15.3299C14.18 15.2876 14.5833 14.8576 14.5833 14.3333V11.75C14.5833 11.1977 14.1356 10.75 13.5833 10.75H12.2917H11C10.4477 10.75 10 11.1977 10 11.75V14.3333C10 14.8576 10.4034 15.2876 10.9167 15.3299V18.5C10.9167 18.7761 11.1405 19 11.4167 19H13.1667C13.4428 19 13.6667 18.7761 13.6667 18.5V15.3299Z" fill="#999999"/>
<path fill-rule="evenodd" clip-rule="evenodd" d="M5.66667 9.375C5.66667 10.1344 5.05106 10.75 4.29167 10.75C3.53228 10.75 2.91667 10.1344 2.91667 9.375C2.91667 8.61561 3.53228 8 4.29167 8C5.05106 8 5.66667 8.61561 5.66667 9.375ZM5.66667 15.3299C6.17996 15.2876 6.58333 14.8576 6.58333 14.3333V11.75C6.58333 11.1977 6.13562 10.75 5.58333 10.75H4.29167H3C2.44772 10.75 2 11.1977 2 11.75V14.3333C2 14.8576 2.40337 15.2876 2.91667 15.3299V18.5C2.91667 18.7761 3.14052 19 3.41667 19H5.16667C5.44281 19 5.66667 18.7761 5.66667 18.5V15.3299Z" fill="#999999"/>
<mask id="path-4-outside-1_1398_3640" maskUnits="userSpaceOnUse" x="5" y="6" width="7" height="14" fill="black">
<rect fill="white" x="5" y="6" width="7" height="14"/>
<path fill-rule="evenodd" clip-rule="evenodd" d="M10 8.5C10 9.32843 9.32843 10 8.5 10C7.67157 10 7 9.32843 7 8.5C7 7.67157 7.67157 7 8.5 7C9.32843 7 10 7.67157 10 8.5ZM10 15C10.5523 15 11 14.5523 11 14V11C11 10.4477 10.5523 10 10 10H8.5H7C6.44772 10 6 10.4477 6 11V14C6 14.5523 6.44772 15 7 15L7 18.5C7 18.7761 7.22386 19 7.5 19H9.5C9.77614 19 10 18.7761 10 18.5V15Z"/>
</mask>
<path fill-rule="evenodd" clip-rule="evenodd" d="M10 8.5C10 9.32843 9.32843 10 8.5 10C7.67157 10 7 9.32843 7 8.5C7 7.67157 7.67157 7 8.5 7C9.32843 7 10 7.67157 10 8.5ZM10 15C10.5523 15 11 14.5523 11 14V11C11 10.4477 10.5523 10 10 10H8.5H7C6.44772 10 6 10.4477 6 11V14C6 14.5523 6.44772 15 7 15L7 18.5C7 18.7761 7.22386 19 7.5 19H9.5C9.77614 19 10 18.7761 10 18.5V15Z" fill="#999999"/>
<path d="M10 15V14.5H9.5V15H10ZM7 15L7.5 15L7.5 14.5H7V15ZM7 18.5L7.5 18.5V18.5L7 18.5ZM8.5 10.5C9.60457 10.5 10.5 9.60457 10.5 8.5H9.5C9.5 9.05228 9.05228 9.5 8.5 9.5V10.5ZM6.5 8.5C6.5 9.60457 7.39543 10.5 8.5 10.5V9.5C7.94772 9.5 7.5 9.05228 7.5 8.5H6.5ZM8.5 6.5C7.39543 6.5 6.5 7.39543 6.5 8.5H7.5C7.5 7.94772 7.94772 7.5 8.5 7.5V6.5ZM10.5 8.5C10.5 7.39543 9.60457 6.5 8.5 6.5V7.5C9.05228 7.5 9.5 7.94772 9.5 8.5H10.5ZM10.5 14C10.5 14.2761 10.2761 14.5 10 14.5V15.5C10.8284 15.5 11.5 14.8284 11.5 14H10.5ZM10.5 11V14H11.5V11H10.5ZM10 10.5C10.2761 10.5 10.5 10.7239 10.5 11H11.5C11.5 10.1716 10.8284 9.5 10 9.5V10.5ZM8.5 10.5H10V9.5H8.5V10.5ZM7 10.5H8.5V9.5H7V10.5ZM6.5 11C6.5 10.7239 6.72386 10.5 7 10.5V9.5C6.17157 9.5 5.5 10.1716 5.5 11H6.5ZM6.5 14V11H5.5V14H6.5ZM7 14.5C6.72386 14.5 6.5 14.2761 6.5 14H5.5C5.5 14.8284 6.17157 15.5 7 15.5V14.5ZM7.5 18.5L7.5 15L6.5 15L6.5 18.5L7.5 18.5ZM7.5 18.5H6.5C6.5 19.0523 6.94772 19.5 7.5 19.5V18.5ZM9.5 18.5H7.5V19.5H9.5V18.5ZM9.5 18.5V19.5C10.0523 19.5 10.5 19.0523 10.5 18.5H9.5ZM9.5 15V18.5H10.5V15H9.5Z" fill="white" mask="url(#path-4-outside-1_1398_3640)"/>
</svg>
