<svg height="100%" viewBox="0 0 20 20" fill="none" xmlns="http://www.w3.org/2000/svg">
<path fill-rule="evenodd" clip-rule="evenodd" d="M9.5 18.9162V15.5H6.88121C7.02633 15.9029 7.18634 16.2787 7.35889 16.6239C8.04 17.9861 8.81057 18.6892 9.5 18.9162ZM6.56731 14.5H9.5V10.5H6.00645C6.04422 11.959 6.24604 13.3157 6.56731 14.5ZM5.00614 10.5C5.04143 11.9334 5.22764 13.2875 5.53365 14.5H2.20404C1.51665 13.3117 1.09314 11.9517 1.01365 10.5H5.00614ZM6.00645 9.5H9.5V5H6.71318C6.30748 6.29621 6.04965 7.83124 6.00645 9.5ZM5.66891 5C5.28265 6.33547 5.04637 7.86619 5.00614 9.5H1.01365C1.10453 7.84033 1.64508 6.30041 2.51555 5H5.66891ZM7.07464 4H9.5V1.08383C8.81057 1.31082 8.04 2.01393 7.35889 3.37615C7.25986 3.57421 7.16497 3.78239 7.07464 4ZM5.99963 4H3.29168C4.39972 2.762 5.84542 1.83254 7.48401 1.3564C6.90517 2.03182 6.4003 2.93317 5.99963 4ZM2.87555 15.5H5.82351C6.24786 16.7863 6.81679 17.8651 7.48402 18.6436C5.63164 18.1053 4.02576 16.9878 2.87555 15.5ZM12.6411 16.6239C11.96 17.9861 11.1894 18.6892 10.5 18.9162V15.5H13.1188C12.9737 15.9029 12.8137 16.2787 12.6411 16.6239ZM14.1765 15.5C13.7521 16.7863 13.1832 17.8651 12.516 18.6436C14.3684 18.1053 15.9742 16.9878 17.1245 15.5H14.1765ZM17.796 14.5H14.4664C14.7724 13.2875 14.9586 11.9334 14.9939 10.5H18.9863C18.9069 11.9517 18.4834 13.3117 17.796 14.5ZM18.9863 9.5C18.8955 7.84033 18.3549 6.30041 17.4845 5H14.3311C14.7174 6.33547 14.9536 7.86619 14.9939 9.5H18.9863ZM13.9935 9.5C13.9503 7.83124 13.6925 6.29621 13.2868 5H10.5V9.5H13.9935ZM14.0004 4H16.7083C15.6003 2.762 14.1546 1.83254 12.516 1.3564C13.0948 2.03182 13.5997 2.93317 14.0004 4ZM12.9254 4H10.5V1.08383C11.1894 1.31082 11.96 2.01393 12.6411 3.37615C12.7401 3.57421 12.835 3.78239 12.9254 4ZM13.9935 10.5C13.9558 11.959 13.754 13.3157 13.4327 14.5H10.5V10.5H13.9935ZM20 10C20 4.47715 15.5228 0 10 0C4.47715 0 0 4.47715 0 10C0 15.5228 4.47715 20 10 20C15.5228 20 20 15.5228 20 10Z" fill="#999999"/>
</svg>
