<svg width="38" height="37" viewBox="0 0 38 37" fill="none" xmlns="http://www.w3.org/2000/svg">
<path d="M9 6V33H29V13H22V6H9Z" fill="white" stroke="#84847B"/>
<path d="M22 13V6L29 13H22Z" fill="white" stroke="#84847B" stroke-linejoin="bevel"/>
<circle cx="9" cy="9" r="2" fill="#F3F3F3"/>
<mask id="path-4-outside-1_1408_3700" maskUnits="userSpaceOnUse" x="0" y="0" width="18" height="18" fill="black">
<rect fill="white" width="18" height="18"/>
<path fill-rule="evenodd" clip-rule="evenodd" d="M7.7175 5.53553C7.7175 6.08782 8.16522 6.53553 8.7175 6.53553C9.26978 6.53553 9.7175 6.08782 9.7175 5.53553V2C9.7175 1.44772 9.26978 1 8.7175 1C8.16522 1 7.7175 1.44772 7.7175 2L7.7175 5.53553ZM10.2604 5.76046C9.86987 6.15099 9.86987 6.78415 10.2604 7.17468C10.6509 7.5652 11.2841 7.5652 11.6746 7.17468L14.1746 4.67468C14.5651 4.28415 14.5651 3.65099 14.1746 3.26046C13.7841 2.86994 13.1509 2.86994 12.7604 3.26046L10.2604 5.76046ZM4.67461 3.26046C4.28408 2.86994 3.65092 2.86994 3.26039 3.26046C2.86987 3.65099 2.86987 4.28415 3.26039 4.67468L5.76039 7.17468C6.15092 7.5652 6.78408 7.5652 7.17461 7.17468C7.56513 6.78415 7.56513 6.15099 7.17461 5.76046L4.67461 3.26046ZM11.6746 10.2605C11.2841 9.86994 10.6509 9.86994 10.2604 10.2605C9.86987 10.651 9.86987 11.2842 10.2604 11.6747L12.7604 14.1747C13.1509 14.5652 13.7841 14.5652 14.1746 14.1747C14.5651 13.7842 14.5651 13.151 14.1746 12.7605L11.6746 10.2605ZM1 8.71757C1 8.16529 1.44772 7.71757 2 7.71757H5.53553C6.08782 7.71757 6.53553 8.16529 6.53553 8.71757C6.53553 9.26985 6.08782 9.71757 5.53553 9.71757H2C1.44772 9.71757 1 9.26986 1 8.71757ZM11.8995 7.71757C11.3473 7.71757 10.8995 8.16529 10.8995 8.71757C10.8995 9.26986 11.3473 9.71757 11.8995 9.71757H15.4351C15.9874 9.71757 16.4351 9.26985 16.4351 8.71757C16.4351 8.16529 15.9874 7.71757 15.4351 7.71757H11.8995ZM3.26039 14.1747C2.86987 13.7842 2.86987 13.151 3.26039 12.7605L5.76039 10.2605C6.15092 9.86994 6.78408 9.86994 7.17461 10.2605C7.56513 10.651 7.56513 11.2842 7.17461 11.6747L4.67461 14.1747C4.28408 14.5652 3.65092 14.5652 3.26039 14.1747ZM8.7175 16.4351C8.16522 16.4351 7.7175 15.9874 7.7175 15.4351L7.7175 11.8995C7.7175 11.3473 8.16522 10.8995 8.7175 10.8995C9.26978 10.8995 9.7175 11.3473 9.7175 11.8995V15.4351C9.7175 15.9874 9.26978 16.4351 8.7175 16.4351Z"/>
</mask>
<path fill-rule="evenodd" clip-rule="evenodd" d="M7.7175 5.53553C7.7175 6.08782 8.16522 6.53553 8.7175 6.53553C9.26978 6.53553 9.7175 6.08782 9.7175 5.53553V2C9.7175 1.44772 9.26978 1 8.7175 1C8.16522 1 7.7175 1.44772 7.7175 2L7.7175 5.53553ZM10.2604 5.76046C9.86987 6.15099 9.86987 6.78415 10.2604 7.17468C10.6509 7.5652 11.2841 7.5652 11.6746 7.17468L14.1746 4.67468C14.5651 4.28415 14.5651 3.65099 14.1746 3.26046C13.7841 2.86994 13.1509 2.86994 12.7604 3.26046L10.2604 5.76046ZM4.67461 3.26046C4.28408 2.86994 3.65092 2.86994 3.26039 3.26046C2.86987 3.65099 2.86987 4.28415 3.26039 4.67468L5.76039 7.17468C6.15092 7.5652 6.78408 7.5652 7.17461 7.17468C7.56513 6.78415 7.56513 6.15099 7.17461 5.76046L4.67461 3.26046ZM11.6746 10.2605C11.2841 9.86994 10.6509 9.86994 10.2604 10.2605C9.86987 10.651 9.86987 11.2842 10.2604 11.6747L12.7604 14.1747C13.1509 14.5652 13.7841 14.5652 14.1746 14.1747C14.5651 13.7842 14.5651 13.151 14.1746 12.7605L11.6746 10.2605ZM1 8.71757C1 8.16529 1.44772 7.71757 2 7.71757H5.53553C6.08782 7.71757 6.53553 8.16529 6.53553 8.71757C6.53553 9.26985 6.08782 9.71757 5.53553 9.71757H2C1.44772 9.71757 1 9.26986 1 8.71757ZM11.8995 7.71757C11.3473 7.71757 10.8995 8.16529 10.8995 8.71757C10.8995 9.26986 11.3473 9.71757 11.8995 9.71757H15.4351C15.9874 9.71757 16.4351 9.26985 16.4351 8.71757C16.4351 8.16529 15.9874 7.71757 15.4351 7.71757H11.8995ZM3.26039 14.1747C2.86987 13.7842 2.86987 13.151 3.26039 12.7605L5.76039 10.2605C6.15092 9.86994 6.78408 9.86994 7.17461 10.2605C7.56513 10.651 7.56513 11.2842 7.17461 11.6747L4.67461 14.1747C4.28408 14.5652 3.65092 14.5652 3.26039 14.1747ZM8.7175 16.4351C8.16522 16.4351 7.7175 15.9874 7.7175 15.4351L7.7175 11.8995C7.7175 11.3473 8.16522 10.8995 8.7175 10.8995C9.26978 10.8995 9.7175 11.3473 9.7175 11.8995V15.4351C9.7175 15.9874 9.26978 16.4351 8.7175 16.4351Z" fill="#EFCE7B"/>
<path d="M7.7175 5.53553H8.7175H7.7175ZM8.7175 1L8.7175 0H8.7175L8.7175 1ZM7.7175 2H6.7175V2L7.7175 2ZM10.2604 7.17468L10.9675 6.46757L10.9675 6.46757L10.2604 7.17468ZM10.2604 5.76046L10.9675 6.46757L10.9675 6.46757L10.2604 5.76046ZM11.6746 7.17468L10.9675 6.46757V6.46757L11.6746 7.17468ZM14.1746 4.67468L13.4675 3.96757L13.4675 3.96757L14.1746 4.67468ZM14.1746 3.26046L13.4675 3.96757L13.4675 3.96757L14.1746 3.26046ZM12.7604 3.26046L13.4675 3.96757V3.96757L12.7604 3.26046ZM3.26039 3.26046L2.55329 2.55336L2.55329 2.55336L3.26039 3.26046ZM4.67461 3.26046L3.9675 3.96757L3.9675 3.96757L4.67461 3.26046ZM3.26039 4.67468L3.9675 3.96757L3.26039 4.67468ZM5.76039 7.17468L6.4675 6.46757V6.46757L5.76039 7.17468ZM7.17461 5.76046L6.4675 6.46757L6.4675 6.46757L7.17461 5.76046ZM10.2604 10.2605L10.9675 10.9676L10.9675 10.9676L10.2604 10.2605ZM11.6746 10.2605L10.9675 10.9676L10.9675 10.9676L11.6746 10.2605ZM10.2604 11.6747L10.9675 10.9676L10.9675 10.9676L10.2604 11.6747ZM12.7604 14.1747L12.0533 14.8818L12.7604 14.1747ZM14.1746 14.1747L14.8817 14.8818L14.8817 14.8818L14.1746 14.1747ZM14.1746 12.7605L14.8817 12.0534V12.0534L14.1746 12.7605ZM1 8.71757L2 8.71757V8.71757H1ZM3.26039 12.7605L3.9675 13.4676H3.9675L3.26039 12.7605ZM3.26039 14.1747L3.9675 13.4676L3.9675 13.4676L3.26039 14.1747ZM5.76039 10.2605L5.05329 9.55336L5.05329 9.55336L5.76039 10.2605ZM7.17461 10.2605L7.88171 9.55336L7.88171 9.55336L7.17461 10.2605ZM7.17461 11.6747L7.88171 12.3818L7.17461 11.6747ZM4.67461 14.1747L3.9675 13.4676L3.9675 13.4676L4.67461 14.1747ZM7.7175 15.4351H8.7175H7.7175ZM7.7175 11.8995H6.7175H7.7175ZM8.7175 10.8995V9.89954H8.7175L8.7175 10.8995ZM8.7175 5.53553H6.7175C6.7175 6.6401 7.61293 7.53553 8.7175 7.53553V5.53553ZM8.7175 5.53553V7.53553C9.82207 7.53553 10.7175 6.6401 10.7175 5.53553H8.7175ZM8.7175 2V5.53553H10.7175V2H8.7175ZM8.7175 2L8.7175 2H10.7175C10.7175 0.89543 9.82207 2.38419e-07 8.7175 0L8.7175 2ZM8.7175 2L8.7175 2L8.7175 0C7.61293 4.17233e-07 6.7175 0.895431 6.7175 2H8.7175ZM8.7175 5.53553L8.7175 2L6.7175 2L6.7175 5.53553L8.7175 5.53553ZM10.9675 6.46757V6.46757L9.55329 5.05336C8.77224 5.8344 8.77224 7.10074 9.55329 7.88178L10.9675 6.46757ZM10.9675 6.46757H10.9675L9.55329 7.88178C10.3343 8.66283 11.6007 8.66283 12.3817 7.88178L10.9675 6.46757ZM13.4675 3.96757L10.9675 6.46757L12.3817 7.88178L14.8817 5.38178L13.4675 3.96757ZM13.4675 3.96757V3.96757L14.8817 5.38178C15.6628 4.60073 15.6628 3.3344 14.8817 2.55336L13.4675 3.96757ZM13.4675 3.96757H13.4675L14.8817 2.55336C14.1007 1.77231 12.8343 1.77231 12.0533 2.55336L13.4675 3.96757ZM10.9675 6.46757L13.4675 3.96757L12.0533 2.55336L9.55329 5.05336L10.9675 6.46757ZM3.9675 3.96757V3.96757L5.38171 2.55336C4.60067 1.77231 3.33434 1.77231 2.55329 2.55336L3.9675 3.96757ZM3.9675 3.96757L3.9675 3.96757L2.55329 2.55336C1.77224 3.33441 1.77224 4.60074 2.55329 5.38178L3.9675 3.96757ZM6.4675 6.46757L3.9675 3.96757L2.55329 5.38178L5.05329 7.88178L6.4675 6.46757ZM6.4675 6.46757V6.46757L5.05329 7.88178C5.83433 8.66283 7.10067 8.66283 7.88171 7.88178L6.4675 6.46757ZM6.4675 6.46757L6.4675 6.46757L7.88171 7.88178C8.66276 7.10074 8.66276 5.8344 7.88171 5.05336L6.4675 6.46757ZM3.9675 3.96757L6.4675 6.46757L7.88171 5.05336L5.38171 2.55336L3.9675 3.96757ZM10.9675 10.9676H10.9675L12.3817 9.55336C11.6007 8.77231 10.3343 8.77231 9.55329 9.55336L10.9675 10.9676ZM10.9675 10.9676V10.9676L9.55329 9.55336C8.77224 10.3344 8.77224 11.6007 9.55329 12.3818L10.9675 10.9676ZM13.4675 13.4676L10.9675 10.9676L9.55329 12.3818L12.0533 14.8818L13.4675 13.4676ZM13.4675 13.4676L13.4675 13.4676L12.0533 14.8818C12.8343 15.6628 14.1007 15.6628 14.8817 14.8818L13.4675 13.4676ZM13.4675 13.4676L13.4675 13.4676L14.8817 14.8818C15.6628 14.1007 15.6628 12.8344 14.8817 12.0534L13.4675 13.4676ZM10.9675 10.9676L13.4675 13.4676L14.8817 12.0534L12.3817 9.55336L10.9675 10.9676ZM2 6.71757C0.895431 6.71757 -1.19209e-07 7.613 0 8.71757L2 8.71757H2V6.71757ZM5.53553 6.71757H2V8.71757H5.53553V6.71757ZM7.53553 8.71757C7.53553 7.613 6.6401 6.71757 5.53553 6.71757V8.71757H7.53553ZM5.53553 10.7176C6.6401 10.7176 7.53553 9.82214 7.53553 8.71757H5.53553V10.7176ZM2 10.7176H5.53553V8.71757H2V10.7176ZM0 8.71757C-1.19209e-07 9.82214 0.895431 10.7176 2 10.7176V8.71757L2 8.71757L0 8.71757ZM11.8995 8.71757V6.71757C10.795 6.71757 9.89954 7.613 9.89954 8.71757H11.8995ZM11.8995 8.71757H9.89954C9.89954 9.82214 10.795 10.7176 11.8995 10.7176V8.71757ZM15.4351 8.71757H11.8995V10.7176H15.4351V8.71757ZM15.4351 8.71757H15.4351V10.7176C16.5396 10.7176 17.4351 9.82214 17.4351 8.71757H15.4351ZM15.4351 8.71757H15.4351H17.4351C17.4351 7.613 16.5396 6.71757 15.4351 6.71757V8.71757ZM11.8995 8.71757H15.4351V6.71757H11.8995V8.71757ZM2.55329 12.0534C1.77224 12.8344 1.77224 14.1007 2.55329 14.8818L3.9675 13.4676V13.4676L2.55329 12.0534ZM5.05329 9.55336L2.55329 12.0534L3.9675 13.4676L6.4675 10.9676L5.05329 9.55336ZM7.88171 9.55336C7.10067 8.77231 5.83434 8.77231 5.05329 9.55336L6.4675 10.9676H6.4675L7.88171 9.55336ZM7.88171 12.3818C8.66276 11.6007 8.66276 10.3344 7.88171 9.55336L6.4675 10.9676L6.4675 10.9676L7.88171 12.3818ZM5.38171 14.8818L7.88171 12.3818L6.4675 10.9676L3.9675 13.4676L5.38171 14.8818ZM2.55329 14.8818C3.33433 15.6628 4.60067 15.6628 5.38171 14.8818L3.9675 13.4676H3.9675L2.55329 14.8818ZM6.7175 15.4351C6.7175 16.5396 7.61293 17.4351 8.7175 17.4351V15.4351H6.7175ZM6.7175 11.8995L6.7175 15.4351H8.7175L8.7175 11.8995H6.7175ZM8.7175 9.89954C7.61293 9.89954 6.7175 10.795 6.7175 11.8995H8.7175L8.7175 11.8995L8.7175 9.89954ZM10.7175 11.8995C10.7175 10.795 9.82207 9.89954 8.7175 9.89954V11.8995H8.7175H10.7175ZM10.7175 15.4351V11.8995H8.7175V15.4351H10.7175ZM8.7175 17.4351C9.82207 17.4351 10.7175 16.5396 10.7175 15.4351H8.7175V15.4351V17.4351Z" fill="#F3F3F3" fill-opacity="0.8" mask="url(#path-4-outside-1_1408_3700)"/>
</svg>
