<svg width="18" height="17" viewBox="0 0 18 17" fill="none" xmlns="http://www.w3.org/2000/svg">
<path d="M13.1055 6.5H12.9915L12.8888 6.54937C12.4616 6.75479 11.9938 6.875 11.5 6.875C11.0066 6.875 10.5409 6.755 10.1103 6.54897L10.008 6.5H9.89453H9.7C7.93323 6.5 6.5 7.93323 6.5 9.7V10.375C6.5 11.2722 7.22776 12 8.125 12H14.875C15.7722 12 16.5 11.2722 16.5 10.375V9.7C16.5 7.93323 15.0668 6.5 13.3 6.5H13.1055ZM11.5 6.75C13.2269 6.75 14.625 5.35192 14.625 3.625C14.625 1.89808 13.2269 0.5 11.5 0.5C9.77308 0.5 8.375 1.89808 8.375 3.625C8.375 5.35192 9.77308 6.75 11.5 6.75Z" fill="#63A58C" stroke="#F3F3F3"/>
<path d="M7.10547 8.38049H6.99152L6.88882 8.42987C6.46157 8.63528 5.9938 8.75549 5.5 8.75549C5.00664 8.75549 4.54093 8.63549 4.11034 8.42946L4.00799 8.38049H3.89453H3.7C1.93323 8.38049 0.5 9.81373 0.5 11.5805V12.2555C0.5 13.1527 1.22776 13.8805 2.125 13.8805H8.875C9.77224 13.8805 10.5 13.1527 10.5 12.2555V11.5805C10.5 9.81373 9.06677 8.38049 7.3 8.38049H7.10547ZM5.5 8.63049C7.22692 8.63049 8.625 7.23242 8.625 5.50549C8.625 3.77857 7.22692 2.38049 5.5 2.38049C3.77308 2.38049 2.375 3.77857 2.375 5.50549C2.375 7.23242 3.77308 8.63049 5.5 8.63049Z" fill="#4A7BB5" stroke="#F3F3F3"/>
<rect x="13" y="10" width="3" height="2" fill="white"/>
<path d="M9.35424 14.0191L9.3542 14.0191C9.19895 14.1744 9.11169 14.385 9.11169 14.6047V15.6719C9.11169 16.1292 9.48246 16.5 9.93982 16.5H11.4711C11.9284 16.5 12.2992 16.1292 12.2992 15.6719V15.625H12.3461C12.8034 15.625 13.1742 15.2542 13.1742 14.7969V14.75H13.1831C13.1831 14.75 13.1831 14.75 13.1831 14.75C13.3 14.75 13.4157 14.7252 13.5223 14.6773C13.629 14.6294 13.7244 14.5595 13.8021 14.4721L13.9535 14.3016C14.0366 14.3088 14.1206 14.3125 14.2054 14.3125C15.8105 14.3125 17.1117 13.0113 17.1117 11.4063C17.1117 9.79725 15.8144 8.49998 14.2054 8.5C12.6004 8.50002 11.2992 9.80117 11.2992 11.4062C11.2992 11.6133 11.321 11.8156 11.3624 12.0109L9.35424 14.0191ZM14.8617 10.9062C14.7754 10.9062 14.7054 10.8363 14.7054 10.75C14.7054 10.6637 14.7754 10.5938 14.8617 10.5938C14.948 10.5938 15.0179 10.6637 15.0179 10.75C15.0179 10.8363 14.948 10.9062 14.8617 10.9062Z" fill="#EFBD7B" stroke="white"/>
</svg>
