<svg width="20" height="19" viewBox="0 0 20 19" fill="none" xmlns="http://www.w3.org/2000/svg">
<path d="M14.1055 7.5H13.9915L13.8888 7.54937C13.4616 7.75479 12.9938 7.875 12.5 7.875C12.0066 7.875 11.5409 7.755 11.1103 7.54897L11.008 7.5H10.8945H10.7C8.93323 7.5 7.5 8.93323 7.5 10.7V11.375C7.5 12.2722 8.22776 13 9.125 13H15.875C16.7722 13 17.5 12.2722 17.5 11.375V10.7C17.5 8.93323 16.0668 7.5 14.3 7.5H14.1055ZM12.5 7.75C14.2269 7.75 15.625 6.35192 15.625 4.625C15.625 2.89808 14.2269 1.5 12.5 1.5C10.7731 1.5 9.375 2.89808 9.375 4.625C9.375 6.35192 10.7731 7.75 12.5 7.75Z" fill="#63A58C" stroke="#F3F3F3"/>
<path d="M8.10547 9.38049H7.99152L7.88882 9.42987C7.46157 9.63528 6.9938 9.75549 6.5 9.75549C6.00664 9.75549 5.54093 9.63549 5.11034 9.42946L5.00799 9.38049H4.89453H4.7C2.93323 9.38049 1.5 10.8137 1.5 12.5805V13.2555C1.5 14.1527 2.22776 14.8805 3.125 14.8805H9.875C10.7722 14.8805 11.5 14.1527 11.5 13.2555V12.5805C11.5 10.8137 10.0668 9.38049 8.3 9.38049H8.10547ZM6.5 9.63049C8.22692 9.63049 9.625 8.23242 9.625 6.50549C9.625 4.77857 8.22692 3.38049 6.5 3.38049C4.77308 3.38049 3.375 4.77857 3.375 6.50549C3.375 8.23242 4.77308 9.63049 6.5 9.63049Z" fill="#4A7BB5" stroke="#F3F3F3"/>
<rect x="14" y="11" width="3" height="2" fill="white"/>
<path d="M10.3542 15.0191L10.3542 15.0191C10.199 15.1744 10.1117 15.385 10.1117 15.6047V16.6719C10.1117 17.1292 10.4825 17.5 10.9398 17.5H12.4711C12.9284 17.5 13.2992 17.1292 13.2992 16.6719V16.625H13.3461C13.8034 16.625 14.1742 16.2542 14.1742 15.7969V15.75H14.1831C14.1831 15.75 14.1831 15.75 14.1831 15.75C14.3 15.75 14.4157 15.7252 14.5223 15.6773C14.629 15.6294 14.7244 15.5595 14.8021 15.4721L14.9535 15.3016C15.0366 15.3088 15.1206 15.3125 15.2054 15.3125C16.8105 15.3125 18.1117 14.0113 18.1117 12.4063C18.1117 10.7973 16.8144 9.49998 15.2054 9.5C13.6004 9.50002 12.2992 10.8012 12.2992 12.4062C12.2992 12.6133 12.321 12.8156 12.3624 13.0109L10.3542 15.0191ZM15.8617 11.9062C15.7754 11.9062 15.7054 11.8363 15.7054 11.75C15.7054 11.6637 15.7754 11.5938 15.8617 11.5938C15.948 11.5938 16.0179 11.6637 16.0179 11.75C16.0179 11.8363 15.948 11.9062 15.8617 11.9062Z" fill="#EFBD7B" stroke="white"/>
</svg>
