<svg width="35" height="34" viewBox="0 0 35 34" fill="none" xmlns="http://www.w3.org/2000/svg">
<path d="M26.5886 13.1828H26.4747L26.372 13.2322C25.4017 13.6986 24.3309 13.9755 23.195 13.9755C22.0594 13.9755 20.9933 13.6988 20.0171 13.2318L19.9148 13.1828H19.8013H19.3901C15.9631 13.1828 13.1829 15.963 13.1829 19.3901V20.8169C13.1829 22.4059 14.4719 23.6949 16.0609 23.6949H30.329C31.918 23.6949 33.2071 22.4059 33.2071 20.8169V19.3901C33.2071 15.963 30.4268 13.1828 26.9998 13.1828H26.5886ZM23.195 12.5975C26.5378 12.5975 29.2437 9.89153 29.2437 6.54873C29.2437 3.20592 26.5378 0.5 23.195 0.5C19.8522 0.5 17.1462 3.20592 17.1462 6.54873C17.1462 9.89153 19.8522 12.5975 23.195 12.5975Z" fill="#63A58C" stroke="#F3F3F3"/>
<path d="M13.9057 17.1578H13.7918L13.6891 17.2071C12.7189 17.6736 11.6481 17.9505 10.5121 17.9505C9.37657 17.9505 8.31045 17.6738 7.33426 17.2067L7.23192 17.1578H7.11846H6.70726C3.28023 17.1578 0.5 19.938 0.5 23.365V24.7919C0.5 26.3809 1.78901 27.6699 3.37803 27.6699H17.6462C19.2352 27.6699 20.5242 26.3809 20.5242 24.7919V23.365C20.5242 19.938 17.744 17.1578 14.3169 17.1578H13.9057ZM10.5121 16.5724C13.8549 16.5724 16.5608 13.8665 16.5608 10.5237C16.5608 7.1809 13.8549 4.47498 10.5121 4.47498C7.1693 4.47498 4.46338 7.1809 4.46338 10.5237C4.46338 13.8665 7.1693 16.5724 10.5121 16.5724Z" fill="#4A7BB5" stroke="#F3F3F3"/>
<rect x="26.3657" y="20.0242" width="6.3414" height="4.2276" fill="white"/>
<path d="M24.3276 32.0134V31.3574H24.9835C25.6427 31.3574 26.1771 30.823 26.1771 30.1638V29.5079H26.7528C26.7528 29.5079 26.7528 29.5079 26.7529 29.5079C26.9214 29.5079 27.0881 29.4722 27.2418 29.4031C27.3956 29.3341 27.533 29.2332 27.645 29.1072L28.1565 28.5318C28.4042 28.5655 28.657 28.5831 28.9139 28.5831C31.9991 28.5831 34.5002 26.082 34.5002 22.9968C34.5002 19.9032 32.0074 17.4104 28.9138 17.4104C25.8286 17.4104 23.3276 19.9115 23.3276 22.9967C23.3276 23.4984 23.394 23.9851 23.5184 24.4483L19.0532 28.9135L19.0532 28.9136C18.8294 29.1374 18.7036 29.441 18.7036 29.7575V32.0134C18.7036 32.6726 19.238 33.207 19.8972 33.207H23.134C23.7932 33.207 24.3276 32.6726 24.3276 32.0134ZM30.3011 22.4967C29.8111 22.4967 29.4139 22.0995 29.4139 21.6096C29.4139 21.1196 29.8111 20.7224 30.3011 20.7224C30.791 20.7224 31.1882 21.1196 31.1882 21.6096C31.1882 22.0995 30.791 22.4967 30.3011 22.4967Z" fill="#EFBD7B" stroke="white"/>
</svg>
