<svg width="38" height="36" viewBox="0 0 38 36" fill="none" xmlns="http://www.w3.org/2000/svg">
<path d="M28.5886 14.1828H28.4747L28.372 14.2322C27.4017 14.6986 26.3309 14.9755 25.195 14.9755C24.0594 14.9755 22.9933 14.6988 22.0171 14.2318L21.9148 14.1828H21.8013H21.3901C17.9631 14.1828 15.1829 16.963 15.1829 20.3901V21.8169C15.1829 23.4059 16.4719 24.6949 18.0609 24.6949H32.329C33.918 24.6949 35.2071 23.4059 35.2071 21.8169V20.3901C35.2071 16.963 32.4268 14.1828 28.9998 14.1828H28.5886ZM25.195 13.5975C28.5378 13.5975 31.2437 10.8915 31.2437 7.54873C31.2437 4.20592 28.5378 1.5 25.195 1.5C21.8522 1.5 19.1462 4.20592 19.1462 7.54873C19.1462 10.8915 21.8522 13.5975 25.195 13.5975Z" fill="#63A58C" stroke="#F3F3F3"/>
<path d="M15.9057 18.1578H15.7918L15.6891 18.2071C14.7189 18.6736 13.6481 18.9505 12.5121 18.9505C11.3766 18.9505 10.3105 18.6738 9.33426 18.2067L9.23192 18.1578H9.11846H8.70726C5.28023 18.1578 2.5 20.938 2.5 24.365V25.7919C2.5 27.3809 3.78901 28.6699 5.37803 28.6699H19.6462C21.2352 28.6699 22.5242 27.3809 22.5242 25.7919V24.365C22.5242 20.938 19.744 18.1578 16.3169 18.1578H15.9057ZM12.5121 17.5724C15.8549 17.5724 18.5608 14.8665 18.5608 11.5237C18.5608 8.1809 15.8549 5.47498 12.5121 5.47498C9.1693 5.47498 6.46338 8.1809 6.46338 11.5237C6.46338 14.8665 9.1693 17.5724 12.5121 17.5724Z" fill="#4A7BB5" stroke="#F3F3F3"/>
<rect x="28.3657" y="21.0242" width="6.3414" height="4.2276" fill="white"/>
<path d="M26.3276 33.0134V32.3574H26.9835C27.6427 32.3574 28.1771 31.823 28.1771 31.1638V30.5079H28.7528C28.7528 30.5079 28.7528 30.5079 28.7529 30.5079C28.9214 30.5079 29.0881 30.4722 29.2418 30.4031C29.3956 30.3341 29.533 30.2332 29.645 30.1072L30.1565 29.5318C30.4042 29.5655 30.657 29.5831 30.9139 29.5831C33.9991 29.5831 36.5002 27.082 36.5002 23.9968C36.5002 20.9032 34.0074 18.4104 30.9138 18.4104C27.8286 18.4104 25.3276 20.9115 25.3276 23.9967C25.3276 24.4984 25.394 24.9851 25.5184 25.4483L21.0532 29.9135L21.0532 29.9136C20.8294 30.1374 20.7036 30.441 20.7036 30.7575V33.0134C20.7036 33.6726 21.238 34.207 21.8972 34.207H25.134C25.7932 34.207 26.3276 33.6726 26.3276 33.0134ZM32.3011 23.4967C31.8111 23.4967 31.4139 23.0995 31.4139 22.6096C31.4139 22.1196 31.8111 21.7224 32.3011 21.7224C32.791 21.7224 33.1882 22.1196 33.1882 22.6096C33.1882 23.0995 32.791 23.4967 32.3011 23.4967Z" fill="#EFBD7B" stroke="white"/>
</svg>
