<svg width="38" height="36" viewBox="0 0 38 36" fill="none" xmlns="http://www.w3.org/2000/svg">
<rect x="8.5" y="4.5" width="22" height="25" fill="white" stroke="#808080"/>
<path d="M35.6458 19.1248H28.9167V17.3539C28.9164 17.3018 28.9047 17.2504 28.8824 17.2032C28.86 17.1561 28.8276 17.1145 28.7874 17.0813C28.7472 17.0481 28.7002 17.0242 28.6497 17.0112C28.5992 16.9982 28.5464 16.9965 28.4952 17.0062L19.2869 18.777C19.2061 18.7926 19.1333 18.8359 19.081 18.8993C19.0286 18.9628 19 19.0425 19 19.1248V31.8748C19 31.9571 19.0286 32.0368 19.081 32.1002C19.1333 32.1637 19.2061 32.207 19.2869 32.2226L28.4952 33.9934C28.5465 34.0035 28.5994 34.002 28.65 33.989C28.7006 33.976 28.7477 33.9519 28.7877 33.9183C28.8282 33.8853 28.8607 33.8437 28.883 33.7966C28.9053 33.7494 28.9168 33.6978 28.9167 33.6456V31.8748H35.6458C35.7398 31.8748 35.8298 31.8375 35.8963 31.7711C35.9627 31.7046 36 31.6146 36 31.5206V19.4789C36 19.385 35.9627 19.2949 35.8963 19.2285C35.8298 19.1621 35.7398 19.1248 35.6458 19.1248Z" fill="#206F44"/>
<path d="M28 33L20 31.4111V19.5882L28 18V33Z" fill="#206E43"/>
<path d="M35 31H29V30.3125H30.6667C30.7551 30.3125 30.8399 30.2763 30.9024 30.2118C30.9649 30.1474 31 30.0599 31 29.9688V29.2812C31 29.1901 30.9649 29.1026 30.9024 29.0382C30.8399 28.9737 30.7551 28.9375 30.6667 28.9375H29V28.25H30.6667C30.7551 28.25 30.8399 28.2138 30.9024 28.1493C30.9649 28.0849 31 27.9974 31 27.9062V27.2188C31 27.1276 30.9649 27.0401 30.9024 26.9757C30.8399 26.9112 30.7551 26.875 30.6667 26.875H29V26.1875H30.6667C30.7551 26.1875 30.8399 26.1513 30.9024 26.0868C30.9649 26.0224 31 25.9349 31 25.8438V25.1562C31 25.0651 30.9649 24.9776 30.9024 24.9132C30.8399 24.8487 30.7551 24.8125 30.6667 24.8125H29V24.125H30.6667C30.7551 24.125 30.8399 24.0888 30.9024 24.0243C30.9649 23.9599 31 23.8724 31 23.7812V23.0938C31 23.0026 30.9649 22.9151 30.9024 22.8507C30.8399 22.7862 30.7551 22.75 30.6667 22.75H29V22.0625H30.6667C30.7551 22.0625 30.8399 22.0263 30.9024 21.9618C30.9649 21.8974 31 21.8099 31 21.7188V21.0312C31 20.9401 30.9649 20.8526 30.9024 20.7882C30.8399 20.7237 30.7551 20.6875 30.6667 20.6875H29V20H35V31Z" fill="white"/>
<path d="M32.25 22.2857H33.75C33.8163 22.2857 33.8799 22.2518 33.9268 22.1916C33.9737 22.1313 34 22.0495 34 21.9643V21.3214C34 21.2362 33.9737 21.1544 33.9268 21.0941C33.8799 21.0339 33.8163 21 33.75 21H32.25C32.1837 21 32.1201 21.0339 32.0732 21.0941C32.0263 21.1544 32 21.2362 32 21.3214V21.9643C32 22.0495 32.0263 22.1313 32.0732 22.1916C32.1201 22.2518 32.1837 22.2857 32.25 22.2857ZM32.25 24.2143H33.75C33.8163 24.2143 33.8799 24.1804 33.9268 24.1201C33.9737 24.0599 34 23.9781 34 23.8929V23.25C34 23.1648 33.9737 23.083 33.9268 23.0227C33.8799 22.9624 33.8163 22.9286 33.75 22.9286H32.25C32.1837 22.9286 32.1201 22.9624 32.0732 23.0227C32.0263 23.083 32 23.1648 32 23.25V23.8929C32 23.9781 32.0263 24.0599 32.0732 24.1201C32.1201 24.1804 32.1837 24.2143 32.25 24.2143ZM32.25 26.1429H33.75C33.8163 26.1429 33.8799 26.109 33.9268 26.0487C33.9737 25.9884 34 25.9067 34 25.8214V25.1786C34 25.0933 33.9737 25.0116 33.9268 24.9513C33.8799 24.891 33.8163 24.8571 33.75 24.8571H32.25C32.1837 24.8571 32.1201 24.891 32.0732 24.9513C32.0263 25.0116 32 25.0933 32 25.1786V25.8214C32 25.9067 32.0263 25.9884 32.0732 26.0487C32.1201 26.109 32.1837 26.1429 32.25 26.1429ZM32.25 28.0714H33.75C33.8163 28.0714 33.8799 28.0376 33.9268 27.9773C33.9737 27.917 34 27.8352 34 27.75V27.1071C34 27.0219 33.9737 26.9401 33.9268 26.8799C33.8799 26.8196 33.8163 26.7857 33.75 26.7857H32.25C32.1837 26.7857 32.1201 26.8196 32.0732 26.8799C32.0263 26.9401 32 27.0219 32 27.1071V27.75C32 27.8352 32.0263 27.917 32.0732 27.9773C32.1201 28.0376 32.1837 28.0714 32.25 28.0714ZM32.25 30H33.75C33.8163 30 33.8799 29.9661 33.9268 29.9059C33.9737 29.8456 34 29.7638 34 29.6786V29.0357C34 28.9505 33.9737 28.8687 33.9268 28.8084C33.8799 28.7481 33.8163 28.7143 33.75 28.7143H32.25C32.1837 28.7143 32.1201 28.7481 32.0732 28.8084C32.0263 28.8687 32 28.9505 32 29.0357V29.6786C32 29.7638 32.0263 29.8456 32.0732 29.9059C32.1201 29.9661 32.1837 30 32.25 30Z" fill="#217346"/>
<path d="M25.7786 23.0346C25.6836 22.9956 25.574 22.9893 25.4735 23.0171C25.373 23.0449 25.2897 23.1047 25.2417 23.1833L23.999 25.2543L22.7564 23.1833C22.705 23.11 22.6221 23.0557 22.5244 23.0315C22.4267 23.0073 22.3216 23.015 22.2305 23.053C22.1394 23.0911 22.0691 23.1566 22.0339 23.2363C21.9987 23.316 22.0013 23.4039 22.041 23.482L23.5517 25.9998L22.041 28.5175C21.9945 28.5964 21.9872 28.6875 22.0209 28.7709C22.0546 28.8542 22.1265 28.9231 22.2208 28.9626C22.3152 29.002 22.4245 29.0087 22.5248 28.9813C22.6251 28.9539 22.7083 28.8945 22.7564 28.8162L23.999 26.7452L25.2417 28.8155C25.2652 28.8547 25.2977 28.8896 25.3374 28.9183C25.3771 28.9471 25.4232 28.969 25.473 28.9828C25.5229 28.9967 25.5755 29.0023 25.6279 28.9992C25.6804 28.9961 25.7316 28.9844 25.7786 28.9649C25.8256 28.9453 25.8675 28.9182 25.902 28.8851C25.9365 28.852 25.9628 28.8136 25.9794 28.7721C25.996 28.7305 26.0027 28.6867 25.999 28.643C25.9953 28.5993 25.9813 28.5566 25.9578 28.5175L24.4463 25.9998L25.957 23.482C26.0046 23.403 26.0125 23.3115 25.979 23.2276C25.9455 23.1437 25.8734 23.0743 25.7786 23.0346Z" fill="white"/>
<path d="M1.53051 17.9804L1.5305 17.9804C1.48443 18.1249 1.49867 18.2584 1.52038 18.3518C1.54253 18.4471 1.58009 18.5337 1.61763 18.6059C1.69235 18.7498 1.79929 18.8977 1.91157 19.0371C2.13845 19.3188 2.44948 19.6412 2.75236 19.9465C2.8515 20.0465 2.94961 20.1444 3.04506 20.2398C3.24976 20.4442 3.44224 20.6364 3.60651 20.8097C3.72598 20.9358 3.82067 21.0417 3.8873 21.1255C3.91745 21.1634 3.93585 21.1896 3.94642 21.2053C3.94645 21.225 3.9458 21.2587 3.94175 21.3104C3.93313 21.4203 3.91361 21.5649 3.88498 21.7403C3.84562 21.9814 3.79345 22.2552 3.73808 22.5459C3.7123 22.6813 3.68582 22.8203 3.65961 22.9613C3.57933 23.3934 3.50202 23.843 3.47108 24.2084C3.45578 24.3891 3.44956 24.5729 3.46718 24.7339C3.47602 24.8147 3.49265 24.9077 3.52691 24.9993C3.5602 25.0882 3.62334 25.211 3.74713 25.3068C3.87309 25.4042 4.01041 25.4342 4.11036 25.4421C4.21108 25.4501 4.3068 25.4385 4.3864 25.423C4.54484 25.3921 4.71525 25.33 4.87694 25.2612C5.20441 25.1217 5.59438 24.911 5.96514 24.7039C6.08678 24.6359 6.2062 24.5685 6.32234 24.5028C6.57114 24.3623 6.80483 24.2302 7.01281 24.1204C7.16414 24.0404 7.28881 23.9793 7.38436 23.9393C7.41565 23.9262 7.43915 23.9175 7.45582 23.9117C7.47243 23.9178 7.49582 23.9269 7.52697 23.9406C7.62192 23.9821 7.74566 24.0454 7.89575 24.1279C8.10202 24.2413 8.33367 24.3773 8.58028 24.522C8.69538 24.5896 8.81375 24.6591 8.93431 24.7291C9.30183 24.9424 9.68846 25.1596 10.0137 25.3046C10.1743 25.3762 10.3437 25.4411 10.5016 25.4747C10.5809 25.4915 10.6764 25.5047 10.7772 25.4984C10.8773 25.4922 11.0152 25.4646 11.1429 25.3691C11.2683 25.2753 11.3334 25.1534 11.3681 25.0649C11.4038 24.9739 11.4219 24.8811 11.432 24.8005C11.4521 24.6398 11.4487 24.4559 11.4362 24.2749C11.4109 23.9091 11.3405 23.4583 11.2669 23.0249C11.2429 22.8834 11.2185 22.744 11.1948 22.6083C11.1439 22.3167 11.096 22.042 11.0604 21.8002C11.0344 21.6243 11.0171 21.4794 11.0102 21.3694C11.007 21.3178 11.0068 21.284 11.0072 21.2644C11.018 21.2488 11.0367 21.2231 11.0673 21.1858C11.1352 21.1032 11.2315 20.9989 11.3529 20.8749C11.5198 20.7044 11.7152 20.5154 11.923 20.3145C12.0199 20.2208 12.1196 20.1245 12.2202 20.0262C12.5278 19.7261 12.8438 19.4089 13.075 19.1311C13.1894 18.9936 13.2987 18.8474 13.3757 18.7048C13.4353 18.5943 13.5537 18.3496 13.4725 18.0807L13.4725 18.0806C13.3895 17.8058 13.1498 17.671 13.0363 17.6145C12.8915 17.5423 12.719 17.4876 12.5491 17.4437C12.2053 17.355 11.7711 17.2853 11.3547 17.2247C11.218 17.2048 11.0834 17.1859 10.9525 17.1675C10.6724 17.1281 10.4096 17.0912 10.1798 17.0521C10.0127 17.0237 9.87785 16.9965 9.77842 16.9701C9.74228 16.9605 9.71682 16.9525 9.69989 16.9467C9.68905 16.9307 9.67285 16.9057 9.65137 16.8687C9.597 16.7751 9.5318 16.6465 9.45652 16.487C9.35305 16.2679 9.2416 16.0144 9.12323 15.7452C9.0681 15.6198 9.01147 15.491 8.95344 15.3607C8.77586 14.9618 8.58578 14.55 8.40526 14.2346C8.31608 14.0788 8.21708 13.9247 8.11065 13.8033C8.05733 13.7424 7.98943 13.675 7.90666 13.6196C7.82569 13.5653 7.69857 13.5014 7.53683 13.5L7.53679 13.5C7.37501 13.4987 7.2468 13.5605 7.16487 13.6134C7.08114 13.6675 7.01214 13.7339 6.95784 13.7938C6.84947 13.9136 6.74805 14.066 6.65647 14.2203C6.47107 14.5327 6.27464 14.9413 6.09093 15.3371C6.03089 15.4664 5.97227 15.5943 5.91521 15.7187C5.7927 15.9859 5.67738 16.2374 5.57055 16.4547C5.49282 16.6129 5.42567 16.7403 5.36988 16.833C5.34797 16.8694 5.33147 16.894 5.3204 16.9098C5.3034 16.9153 5.27792 16.9228 5.24184 16.9318C5.14204 16.9565 5.0068 16.9814 4.83926 17.007C4.60893 17.0422 4.34552 17.0747 4.06486 17.1093C3.93376 17.1255 3.7989 17.1421 3.66189 17.1597C3.24469 17.2133 2.80938 17.2756 2.4643 17.3585C2.29371 17.3996 2.12029 17.4513 1.97434 17.5211C1.85999 17.5757 1.61781 17.7066 1.53051 17.9804Z" fill="#F8B84E" stroke="#F3F3F3"/>
<rect x="13" y="8" width="14" height="5" fill="#76A797"/>
<mask id="path-9-outside-1_1408_3811" maskUnits="userSpaceOnUse" x="5" y="23" width="15" height="13" fill="black">
<rect fill="white" x="5" y="23" width="15" height="13"/>
<path fill-rule="evenodd" clip-rule="evenodd" d="M14.2963 30.6584H10C9.26907 30.6584 8.26245 30.3766 7.43247 29.5798C6.57717 28.7587 6 27.4799 6 25.6584H8C8 27.037 8.42283 27.7581 8.81753 28.1371C9.23755 28.5403 9.73093 28.6584 10 28.6584H14.2962L12.2474 26.317L13.7526 25L17.8288 29.6585L13.7526 34.317L12.2474 33L14.2963 30.6584Z"/>
</mask>
<path fill-rule="evenodd" clip-rule="evenodd" d="M14.2963 30.6584H10C9.26907 30.6584 8.26245 30.3766 7.43247 29.5798C6.57717 28.7587 6 27.4799 6 25.6584H8C8 27.037 8.42283 27.7581 8.81753 28.1371C9.23755 28.5403 9.73093 28.6584 10 28.6584H14.2962L12.2474 26.317L13.7526 25L17.8288 29.6585L13.7526 34.317L12.2474 33L14.2963 30.6584Z" fill="#4D82B8"/>
<path d="M14.2963 30.6584L15.0489 31.317L16.5001 29.6584H14.2963V30.6584ZM7.43247 29.5798L6.73994 30.3012L6.73994 30.3012L7.43247 29.5798ZM6 25.6584V24.6584H5V25.6584H6ZM8 25.6584H9V24.6584H8V25.6584ZM8.81753 28.1371L9.51006 27.4157L8.81753 28.1371ZM14.2962 28.6584V29.6584H16.5L15.0488 27.9999L14.2962 28.6584ZM12.2474 26.317L11.5889 25.5644L10.8364 26.2229L11.4949 26.9755L12.2474 26.317ZM13.7526 25L14.5052 24.3415L13.8467 23.5889L13.0941 24.2474L13.7526 25ZM17.8288 29.6585L18.5814 30.317L19.1575 29.6585L18.5814 29L17.8288 29.6585ZM13.7526 34.317L13.0941 35.0696L13.8467 35.7281L14.5052 34.9755L13.7526 34.317ZM12.2474 33L11.4949 32.3415L10.8364 33.0941L11.5889 33.7526L12.2474 33ZM14.2963 29.6584H10V31.6584H14.2963V29.6584ZM10 29.6584C9.49958 29.6584 8.74972 29.4582 8.125 28.8584L6.73994 30.3012C7.77518 31.2951 9.03856 31.6584 10 31.6584V29.6584ZM8.125 28.8584C7.50038 28.2588 7 27.2591 7 25.6584H5C5 27.7008 5.65396 29.2587 6.73994 30.3012L8.125 28.8584ZM6 26.6584H8V24.6584H6V26.6584ZM7 25.6584C7 27.2594 7.50062 28.259 8.125 28.8584L9.51006 27.4157C9.34505 27.2573 9 26.8145 9 25.6584H7ZM8.125 28.8584C8.74941 29.4579 9.49911 29.6584 10 29.6584V27.6584C10.0028 27.6584 9.9848 27.6584 9.94906 27.6516C9.91478 27.645 9.87112 27.6335 9.82192 27.6147C9.72373 27.5772 9.61333 27.5148 9.51006 27.4157L8.125 28.8584ZM10 29.6584H14.2962V27.6584H10V29.6584ZM15.0488 27.9999L13 25.6585L11.4949 26.9755L13.5436 29.317L15.0488 27.9999ZM12.9059 27.0696L14.4111 25.7526L13.0941 24.2474L11.5889 25.5644L12.9059 27.0696ZM13 25.6585L17.0762 30.317L18.5814 29L14.5052 24.3415L13 25.6585ZM17.0762 29L13 33.6585L14.5052 34.9755L18.5814 30.317L17.0762 29ZM14.4111 33.5644L12.9059 32.2474L11.5889 33.7526L13.0941 35.0696L14.4111 33.5644ZM13 33.6585L15.0489 31.317L13.5437 29.9999L11.4949 32.3415L13 33.6585Z" fill="#F3F3F3" mask="url(#path-9-outside-1_1408_3811)"/>
<rect x="7" y="7" width="4" height="2" fill="#B3B3B3"/>
</svg>
