<svg width="35" height="32" viewBox="0 0 35 32" fill="none" xmlns="http://www.w3.org/2000/svg">
<rect x="7.5" y="0.5" width="22" height="25" fill="white" stroke="#808080"/>
<path d="M34.6458 15.1248H27.9167V13.3539C27.9164 13.3018 27.9047 13.2504 27.8824 13.2032C27.86 13.1561 27.8276 13.1145 27.7874 13.0813C27.7472 13.0481 27.7002 13.0242 27.6497 13.0112C27.5992 12.9982 27.5464 12.9965 27.4952 13.0062L18.2869 14.777C18.2061 14.7926 18.1333 14.8359 18.081 14.8993C18.0286 14.9628 18 15.0425 18 15.1248V27.8748C18 27.9571 18.0286 28.0368 18.081 28.1002C18.1333 28.1637 18.2061 28.207 18.2869 28.2226L27.4952 29.9934C27.5465 30.0035 27.5994 30.002 27.65 29.989C27.7006 29.976 27.7477 29.9519 27.7877 29.9183C27.8282 29.8853 27.8607 29.8437 27.883 29.7966C27.9053 29.7494 27.9168 29.6978 27.9167 29.6456V27.8748H34.6458C34.7398 27.8748 34.8298 27.8375 34.8963 27.7711C34.9627 27.7046 35 27.6146 35 27.5206V15.4789C35 15.385 34.9627 15.2949 34.8963 15.2285C34.8298 15.1621 34.7398 15.1248 34.6458 15.1248Z" fill="#206F44"/>
<path d="M27 29L19 27.4111V15.5882L27 14V29Z" fill="#206E43"/>
<path d="M34 27H28V26.3125H29.6667C29.7551 26.3125 29.8399 26.2763 29.9024 26.2118C29.9649 26.1474 30 26.0599 30 25.9688V25.2812C30 25.1901 29.9649 25.1026 29.9024 25.0382C29.8399 24.9737 29.7551 24.9375 29.6667 24.9375H28V24.25H29.6667C29.7551 24.25 29.8399 24.2138 29.9024 24.1493C29.9649 24.0849 30 23.9974 30 23.9062V23.2188C30 23.1276 29.9649 23.0401 29.9024 22.9757C29.8399 22.9112 29.7551 22.875 29.6667 22.875H28V22.1875H29.6667C29.7551 22.1875 29.8399 22.1513 29.9024 22.0868C29.9649 22.0224 30 21.9349 30 21.8438V21.1562C30 21.0651 29.9649 20.9776 29.9024 20.9132C29.8399 20.8487 29.7551 20.8125 29.6667 20.8125H28V20.125H29.6667C29.7551 20.125 29.8399 20.0888 29.9024 20.0243C29.9649 19.9599 30 19.8724 30 19.7812V19.0938C30 19.0026 29.9649 18.9151 29.9024 18.8507C29.8399 18.7862 29.7551 18.75 29.6667 18.75H28V18.0625H29.6667C29.7551 18.0625 29.8399 18.0263 29.9024 17.9618C29.9649 17.8974 30 17.8099 30 17.7188V17.0312C30 16.9401 29.9649 16.8526 29.9024 16.7882C29.8399 16.7237 29.7551 16.6875 29.6667 16.6875H28V16H34V27Z" fill="white"/>
<path d="M31.25 18.2857H32.75C32.8163 18.2857 32.8799 18.2518 32.9268 18.1916C32.9737 18.1313 33 18.0495 33 17.9643V17.3214C33 17.2362 32.9737 17.1544 32.9268 17.0941C32.8799 17.0339 32.8163 17 32.75 17H31.25C31.1837 17 31.1201 17.0339 31.0732 17.0941C31.0263 17.1544 31 17.2362 31 17.3214V17.9643C31 18.0495 31.0263 18.1313 31.0732 18.1916C31.1201 18.2518 31.1837 18.2857 31.25 18.2857ZM31.25 20.2143H32.75C32.8163 20.2143 32.8799 20.1804 32.9268 20.1201C32.9737 20.0599 33 19.9781 33 19.8929V19.25C33 19.1648 32.9737 19.083 32.9268 19.0227C32.8799 18.9624 32.8163 18.9286 32.75 18.9286H31.25C31.1837 18.9286 31.1201 18.9624 31.0732 19.0227C31.0263 19.083 31 19.1648 31 19.25V19.8929C31 19.9781 31.0263 20.0599 31.0732 20.1201C31.1201 20.1804 31.1837 20.2143 31.25 20.2143ZM31.25 22.1429H32.75C32.8163 22.1429 32.8799 22.109 32.9268 22.0487C32.9737 21.9884 33 21.9067 33 21.8214V21.1786C33 21.0933 32.9737 21.0116 32.9268 20.9513C32.8799 20.891 32.8163 20.8571 32.75 20.8571H31.25C31.1837 20.8571 31.1201 20.891 31.0732 20.9513C31.0263 21.0116 31 21.0933 31 21.1786V21.8214C31 21.9067 31.0263 21.9884 31.0732 22.0487C31.1201 22.109 31.1837 22.1429 31.25 22.1429ZM31.25 24.0714H32.75C32.8163 24.0714 32.8799 24.0376 32.9268 23.9773C32.9737 23.917 33 23.8352 33 23.75V23.1071C33 23.0219 32.9737 22.9401 32.9268 22.8799C32.8799 22.8196 32.8163 22.7857 32.75 22.7857H31.25C31.1837 22.7857 31.1201 22.8196 31.0732 22.8799C31.0263 22.9401 31 23.0219 31 23.1071V23.75C31 23.8352 31.0263 23.917 31.0732 23.9773C31.1201 24.0376 31.1837 24.0714 31.25 24.0714ZM31.25 26H32.75C32.8163 26 32.8799 25.9661 32.9268 25.9059C32.9737 25.8456 33 25.7638 33 25.6786V25.0357C33 24.9505 32.9737 24.8687 32.9268 24.8084C32.8799 24.7481 32.8163 24.7143 32.75 24.7143H31.25C31.1837 24.7143 31.1201 24.7481 31.0732 24.8084C31.0263 24.8687 31 24.9505 31 25.0357V25.6786C31 25.7638 31.0263 25.8456 31.0732 25.9059C31.1201 25.9661 31.1837 26 31.25 26Z" fill="#217346"/>
<path d="M24.7786 19.0346C24.6836 18.9956 24.574 18.9893 24.4735 19.0171C24.373 19.0449 24.2897 19.1047 24.2417 19.1833L22.999 21.2543L21.7564 19.1833C21.705 19.11 21.6221 19.0557 21.5244 19.0315C21.4267 19.0073 21.3216 19.015 21.2305 19.053C21.1394 19.0911 21.0691 19.1566 21.0339 19.2363C20.9987 19.316 21.0013 19.4039 21.041 19.482L22.5517 21.9998L21.041 24.5175C20.9945 24.5964 20.9872 24.6875 21.0209 24.7709C21.0546 24.8542 21.1265 24.9231 21.2208 24.9626C21.3152 25.002 21.4245 25.0087 21.5248 24.9813C21.6251 24.9539 21.7083 24.8945 21.7564 24.8162L22.999 22.7452L24.2417 24.8155C24.2652 24.8547 24.2977 24.8896 24.3374 24.9183C24.3771 24.9471 24.4232 24.969 24.473 24.9828C24.5229 24.9967 24.5755 25.0023 24.6279 24.9992C24.6804 24.9961 24.7316 24.9844 24.7786 24.9649C24.8256 24.9453 24.8675 24.9182 24.902 24.8851C24.9365 24.852 24.9628 24.8136 24.9794 24.7721C24.996 24.7305 25.0027 24.6867 24.999 24.643C24.9953 24.5993 24.9813 24.5566 24.9578 24.5175L23.4463 21.9998L24.957 19.482C25.0046 19.403 25.0125 19.3115 24.979 19.2276C24.9455 19.1437 24.8734 19.0743 24.7786 19.0346Z" fill="white"/>
<path d="M0.530505 13.9804L0.530495 13.9804C0.484431 14.1249 0.498667 14.2584 0.520378 14.3518C0.542526 14.4471 0.580088 14.5337 0.617634 14.6059C0.69235 14.7498 0.799286 14.8977 0.911568 15.0371C1.13845 15.3188 1.44948 15.6412 1.75236 15.9465C1.8515 16.0465 1.94961 16.1444 2.04506 16.2398C2.24976 16.4442 2.44224 16.6364 2.60651 16.8097C2.72598 16.9358 2.82067 17.0417 2.8873 17.1255C2.91745 17.1634 2.93585 17.1896 2.94642 17.2053C2.94645 17.225 2.9458 17.2587 2.94175 17.3104C2.93313 17.4203 2.91361 17.5649 2.88498 17.7403C2.84562 17.9814 2.79345 18.2552 2.73808 18.5459C2.7123 18.6813 2.68582 18.8203 2.65961 18.9613C2.57933 19.3934 2.50202 19.843 2.47108 20.2084C2.45578 20.3891 2.44956 20.5729 2.46718 20.7339C2.47602 20.8147 2.49265 20.9077 2.52691 20.9993C2.5602 21.0882 2.62334 21.211 2.74713 21.3068C2.87309 21.4042 3.01041 21.4342 3.11036 21.4421C3.21108 21.4501 3.3068 21.4385 3.3864 21.423C3.54484 21.3921 3.71525 21.33 3.87694 21.2612C4.20441 21.1217 4.59438 20.911 4.96514 20.7039C5.08678 20.6359 5.2062 20.5685 5.32234 20.5028C5.57114 20.3623 5.80483 20.2302 6.01281 20.1204C6.16414 20.0404 6.28881 19.9793 6.38436 19.9393C6.41565 19.9262 6.43915 19.9175 6.45582 19.9117C6.47243 19.9178 6.49582 19.9269 6.52697 19.9406C6.62192 19.9821 6.74566 20.0454 6.89575 20.1279C7.10202 20.2413 7.33367 20.3773 7.58028 20.522C7.69538 20.5896 7.81375 20.6591 7.93431 20.7291C8.30183 20.9424 8.68846 21.1596 9.0137 21.3046C9.17427 21.3762 9.34366 21.4411 9.50155 21.4747C9.58087 21.4915 9.67639 21.5047 9.77723 21.4984C9.87727 21.4922 10.0152 21.4646 10.1429 21.3691C10.2683 21.2753 10.3334 21.1534 10.3681 21.0649C10.4038 20.9739 10.4219 20.8811 10.432 20.8005C10.4521 20.6398 10.4487 20.4559 10.4362 20.2749C10.4109 19.9091 10.3405 19.4583 10.2669 19.0249C10.2429 18.8834 10.2185 18.744 10.1948 18.6083C10.1439 18.3167 10.096 18.042 10.0604 17.8002C10.0344 17.6243 10.0171 17.4794 10.0102 17.3694C10.007 17.3178 10.0068 17.284 10.0072 17.2644C10.018 17.2488 10.0367 17.2231 10.0673 17.1858C10.1352 17.1032 10.2315 16.9989 10.3529 16.8749C10.5198 16.7044 10.7152 16.5154 10.923 16.3145C11.0199 16.2208 11.1196 16.1245 11.2202 16.0262C11.5278 15.7261 11.8438 15.4089 12.075 15.1311C12.1894 14.9936 12.2987 14.8474 12.3757 14.7048C12.4353 14.5943 12.5537 14.3496 12.4725 14.0807L12.4725 14.0806C12.3895 13.8058 12.1498 13.671 12.0363 13.6145C11.8915 13.5423 11.719 13.4876 11.5491 13.4437C11.2053 13.355 10.7711 13.2853 10.3547 13.2247C10.218 13.2048 10.0834 13.1859 9.95252 13.1675C9.67245 13.1281 9.40958 13.0912 9.17985 13.0521C9.01272 13.0237 8.87785 12.9965 8.77842 12.9701C8.74228 12.9605 8.71682 12.9525 8.69989 12.9467C8.68905 12.9307 8.67285 12.9057 8.65137 12.8687C8.597 12.7751 8.5318 12.6465 8.45652 12.487C8.35305 12.2679 8.2416 12.0144 8.12323 11.7452C8.0681 11.6198 8.01147 11.491 7.95344 11.3607C7.77586 10.9618 7.58578 10.55 7.40526 10.2346C7.31608 10.0788 7.21708 9.92474 7.11065 9.80329C7.05733 9.74244 6.98943 9.67499 6.90666 9.61955C6.82569 9.56534 6.69857 9.50139 6.53683 9.50002L6.53679 9.50002C6.37501 9.49866 6.2468 9.56047 6.16487 9.6134C6.08114 9.66749 6.01214 9.73386 5.95784 9.79385C5.84947 9.91357 5.74805 10.066 5.65647 10.2203C5.47107 10.5327 5.27464 10.9413 5.09093 11.3371C5.03089 11.4664 4.97227 11.5943 4.91521 11.7187C4.7927 11.9859 4.67738 12.2374 4.57055 12.4547C4.49282 12.6129 4.42567 12.7403 4.36988 12.833C4.34797 12.8694 4.33147 12.894 4.3204 12.9098C4.3034 12.9153 4.27792 12.9228 4.24184 12.9318C4.14204 12.9565 4.0068 12.9814 3.83926 13.007C3.60893 13.0422 3.34552 13.0747 3.06486 13.1093C2.93376 13.1255 2.7989 13.1421 2.66189 13.1597C2.24469 13.2133 1.80938 13.2756 1.4643 13.3585C1.29371 13.3996 1.12029 13.4513 0.974342 13.5211C0.859994 13.5757 0.617814 13.7066 0.530505 13.9804Z" fill="#F8B84E" stroke="#F3F3F3"/>
<rect x="12" y="4" width="14" height="5" fill="#76A797"/>
<mask id="path-9-outside-1_1408_3811" maskUnits="userSpaceOnUse" x="4" y="19" width="15" height="13" fill="black">
<rect fill="white" x="4" y="19" width="15" height="13"/>
<path fill-rule="evenodd" clip-rule="evenodd" d="M13.2963 26.6584H9C8.26907 26.6584 7.26245 26.3766 6.43247 25.5798C5.57717 24.7587 5 23.4799 5 21.6584H7C7 23.037 7.42283 23.7581 7.81753 24.1371C8.23755 24.5403 8.73093 24.6584 9 24.6584H13.2962L11.2474 22.317L12.7526 21L16.8288 25.6585L12.7526 30.317L11.2474 29L13.2963 26.6584Z"/>
</mask>
<path fill-rule="evenodd" clip-rule="evenodd" d="M13.2963 26.6584H9C8.26907 26.6584 7.26245 26.3766 6.43247 25.5798C5.57717 24.7587 5 23.4799 5 21.6584H7C7 23.037 7.42283 23.7581 7.81753 24.1371C8.23755 24.5403 8.73093 24.6584 9 24.6584H13.2962L11.2474 22.317L12.7526 21L16.8288 25.6585L12.7526 30.317L11.2474 29L13.2963 26.6584Z" fill="#4D82B8"/>
<path d="M13.2963 26.6584L14.0489 27.317L15.5001 25.6584H13.2963V26.6584ZM6.43247 25.5798L5.73994 26.3012L5.73994 26.3012L6.43247 25.5798ZM5 21.6584V20.6584H4V21.6584H5ZM7 21.6584H8V20.6584H7V21.6584ZM7.81753 24.1371L8.51006 23.4157L7.81753 24.1371ZM13.2962 24.6584V25.6584H15.5L14.0488 23.9999L13.2962 24.6584ZM11.2474 22.317L10.5889 21.5644L9.83636 22.2229L10.4949 22.9755L11.2474 22.317ZM12.7526 21L13.5052 20.3415L12.8467 19.5889L12.0941 20.2474L12.7526 21ZM16.8288 25.6585L17.5814 26.317L18.1575 25.6585L17.5814 25L16.8288 25.6585ZM12.7526 30.317L12.0941 31.0696L12.8467 31.7281L13.5052 30.9755L12.7526 30.317ZM11.2474 29L10.4949 28.3415L9.83636 29.0941L10.5889 29.7526L11.2474 29ZM13.2963 25.6584H9V27.6584H13.2963V25.6584ZM9 25.6584C8.49958 25.6584 7.74972 25.4582 7.125 24.8584L5.73994 26.3012C6.77518 27.2951 8.03856 27.6584 9 27.6584V25.6584ZM7.125 24.8584C6.50038 24.2588 6 23.2591 6 21.6584H4C4 23.7008 4.65396 25.2587 5.73994 26.3012L7.125 24.8584ZM5 22.6584H7V20.6584H5V22.6584ZM6 21.6584C6 23.2594 6.50062 24.259 7.125 24.8584L8.51006 23.4157C8.34505 23.2573 8 22.8145 8 21.6584H6ZM7.125 24.8584C7.74941 25.4579 8.49911 25.6584 9 25.6584V23.6584C9.00279 23.6584 8.9848 23.6584 8.94906 23.6516C8.91478 23.645 8.87112 23.6335 8.82192 23.6147C8.72373 23.5772 8.61333 23.5148 8.51006 23.4157L7.125 24.8584ZM9 25.6584H13.2962V23.6584H9V25.6584ZM14.0488 23.9999L12 21.6585L10.4949 22.9755L12.5436 25.317L14.0488 23.9999ZM11.9059 23.0696L13.4111 21.7526L12.0941 20.2474L10.5889 21.5644L11.9059 23.0696ZM12 21.6585L16.0762 26.317L17.5814 25L13.5052 20.3415L12 21.6585ZM16.0762 25L12 29.6585L13.5052 30.9755L17.5814 26.317L16.0762 25ZM13.4111 29.5644L11.9059 28.2474L10.5889 29.7526L12.0941 31.0696L13.4111 29.5644ZM12 29.6585L14.0489 27.317L12.5437 25.9999L10.4949 28.3415L12 29.6585Z" fill="#F3F3F3" mask="url(#path-9-outside-1_1408_3811)"/>
<rect x="6" y="3" width="4" height="2" fill="#B3B3B3"/>
</svg>
