<svg width="38" height="36" viewBox="0 0 38 36" fill="none" xmlns="http://www.w3.org/2000/svg">
<path d="M11 32V7H24L30 13V32H11Z" fill="white"/>
<path d="M8 30.5V5H22.5M11 7V32H30V13L24 7H11Z" stroke="#84847B"/>
<path d="M24 7V13H30" stroke="#84847B"/>
<mask id="path-4-outside-1_1410_3900" maskUnits="userSpaceOnUse" x="17" y="14.5" width="19" height="19" fill="black">
<rect fill="white" x="17" y="14.5" width="19" height="19"/>
<path fill-rule="evenodd" clip-rule="evenodd" d="M29 22.1C29 24.5301 27.0301 26.5 24.6 26.5C22.17 26.5 20.2 24.5301 20.2 22.1C20.2 19.67 22.17 17.7 24.6 17.7C27.0301 17.7 29 19.67 29 22.1ZM28.4243 27.4798C27.3454 28.2482 26.0255 28.7 24.6 28.7C20.9549 28.7 18 25.7451 18 22.1C18 18.4549 20.9549 15.5 24.6 15.5C28.2451 15.5 31.2 18.4549 31.2 22.1C31.2 23.5254 30.7482 24.8453 29.9799 25.9242L34.1779 30.1221C34.6075 30.5517 34.6075 31.2482 34.1779 31.6778C33.7483 32.1073 33.0518 32.1073 32.6222 31.6778L28.4243 27.4798Z"/>
</mask>
<path fill-rule="evenodd" clip-rule="evenodd" d="M29 22.1C29 24.5301 27.0301 26.5 24.6 26.5C22.17 26.5 20.2 24.5301 20.2 22.1C20.2 19.67 22.17 17.7 24.6 17.7C27.0301 17.7 29 19.67 29 22.1ZM28.4243 27.4798C27.3454 28.2482 26.0255 28.7 24.6 28.7C20.9549 28.7 18 25.7451 18 22.1C18 18.4549 20.9549 15.5 24.6 15.5C28.2451 15.5 31.2 18.4549 31.2 22.1C31.2 23.5254 30.7482 24.8453 29.9799 25.9242L34.1779 30.1221C34.6075 30.5517 34.6075 31.2482 34.1779 31.6778C33.7483 32.1073 33.0518 32.1073 32.6222 31.6778L28.4243 27.4798Z" fill="#84847B"/>
<path d="M28.4243 27.4798L29.1314 26.7727L28.5332 26.1746L27.8442 26.6653L28.4243 27.4798ZM29.9799 25.9242L29.1653 25.3441L28.6747 26.0331L29.2728 26.6313L29.9799 25.9242ZM34.1779 30.1221L33.4708 30.8292L33.4708 30.8292L34.1779 30.1221ZM34.1779 31.6778L33.4708 30.9707L33.4708 30.9707L34.1779 31.6778ZM32.6222 31.6778L33.3293 30.9707L33.3293 30.9707L32.6222 31.6778ZM24.6 27.5C27.5824 27.5 30 25.0824 30 22.1H28C28 23.9778 26.4778 25.5 24.6 25.5V27.5ZM19.2 22.1C19.2 25.0824 21.6177 27.5 24.6 27.5V25.5C22.7222 25.5 21.2 23.9778 21.2 22.1H19.2ZM24.6 16.7C21.6177 16.7 19.2 19.1177 19.2 22.1H21.2C21.2 20.2222 22.7222 18.7 24.6 18.7V16.7ZM30 22.1C30 19.1177 27.5824 16.7 24.6 16.7V18.7C26.4778 18.7 28 20.2222 28 22.1H30ZM24.6 29.7C26.2402 29.7 27.7617 29.1794 29.0044 28.2944L27.8442 26.6653C26.9291 27.317 25.8108 27.7 24.6 27.7V29.7ZM17 22.1C17 26.2974 20.4026 29.7 24.6 29.7V27.7C21.5072 27.7 19 25.1928 19 22.1H17ZM24.6 14.5C20.4026 14.5 17 17.9026 17 22.1H19C19 19.0072 21.5072 16.5 24.6 16.5V14.5ZM32.2 22.1C32.2 17.9026 28.7974 14.5 24.6 14.5V16.5C27.6928 16.5 30.2 19.0072 30.2 22.1H32.2ZM30.7945 26.5042C31.6794 25.2615 32.2 23.7401 32.2 22.1H30.2C30.2 23.3107 29.817 24.429 29.1653 25.3441L30.7945 26.5042ZM29.2728 26.6313L33.4708 30.8292L34.885 29.415L30.687 25.217L29.2728 26.6313ZM33.4708 30.8292C33.5098 30.8683 33.5098 30.9316 33.4708 30.9707L34.885 32.3849C35.7051 31.5648 35.7051 30.2351 34.885 29.415L33.4708 30.8292ZM33.4708 30.9707C33.4317 31.0097 33.3684 31.0097 33.3293 30.9707L31.9151 32.3849C32.7352 33.205 34.0649 33.205 34.885 32.3849L33.4708 30.9707ZM33.3293 30.9707L29.1314 26.7727L27.7172 28.1869L31.9151 32.3849L33.3293 30.9707Z" fill="#F3F3F3" mask="url(#path-4-outside-1_1410_3900)"/>
<circle cx="24.6" cy="22.1001" r="4.40001" fill="white"/>
</svg>
