<svg width="29" height="29" viewBox="0 0 29 29" fill="none" xmlns="http://www.w3.org/2000/svg">
<path d="M4 28V3H17L23 9V28H4Z" fill="white"/>
<path d="M1 26.5V1H15.5M4 3V28H23V9L17 3H4Z" stroke="#84847B"/>
<path d="M17 3V9H23" stroke="#84847B"/>
<mask id="path-4-outside-1_1410_3900" maskUnits="userSpaceOnUse" x="10" y="10.5" width="19" height="19" fill="black">
<rect fill="white" x="10" y="10.5" width="19" height="19"/>
<path fill-rule="evenodd" clip-rule="evenodd" d="M22 18.1C22 20.5301 20.0301 22.5 17.6 22.5C15.17 22.5 13.2 20.5301 13.2 18.1C13.2 15.67 15.17 13.7 17.6 13.7C20.0301 13.7 22 15.67 22 18.1ZM21.4243 23.4798C20.3454 24.2482 19.0255 24.7 17.6 24.7C13.9549 24.7 11 21.7451 11 18.1C11 14.4549 13.9549 11.5 17.6 11.5C21.2451 11.5 24.2 14.4549 24.2 18.1C24.2 19.5254 23.7482 20.8453 22.9799 21.9242L27.1779 26.1221C27.6075 26.5517 27.6075 27.2482 27.1779 27.6778C26.7483 28.1073 26.0518 28.1073 25.6222 27.6778L21.4243 23.4798Z"/>
</mask>
<path fill-rule="evenodd" clip-rule="evenodd" d="M22 18.1C22 20.5301 20.0301 22.5 17.6 22.5C15.17 22.5 13.2 20.5301 13.2 18.1C13.2 15.67 15.17 13.7 17.6 13.7C20.0301 13.7 22 15.67 22 18.1ZM21.4243 23.4798C20.3454 24.2482 19.0255 24.7 17.6 24.7C13.9549 24.7 11 21.7451 11 18.1C11 14.4549 13.9549 11.5 17.6 11.5C21.2451 11.5 24.2 14.4549 24.2 18.1C24.2 19.5254 23.7482 20.8453 22.9799 21.9242L27.1779 26.1221C27.6075 26.5517 27.6075 27.2482 27.1779 27.6778C26.7483 28.1073 26.0518 28.1073 25.6222 27.6778L21.4243 23.4798Z" fill="#84847B"/>
<path d="M21.4243 23.4798L22.1314 22.7727L21.5332 22.1746L20.8442 22.6653L21.4243 23.4798ZM22.9799 21.9242L22.1653 21.3441L21.6747 22.0331L22.2728 22.6313L22.9799 21.9242ZM27.1779 26.1221L26.4708 26.8292L26.4708 26.8292L27.1779 26.1221ZM27.1779 27.6778L26.4708 26.9707L26.4708 26.9707L27.1779 27.6778ZM25.6222 27.6778L26.3293 26.9707L26.3293 26.9707L25.6222 27.6778ZM17.6 23.5C20.5824 23.5 23 21.0824 23 18.1H21C21 19.9778 19.4778 21.5 17.6 21.5V23.5ZM12.2 18.1C12.2 21.0824 14.6177 23.5 17.6 23.5V21.5C15.7222 21.5 14.2 19.9778 14.2 18.1H12.2ZM17.6 12.7C14.6177 12.7 12.2 15.1177 12.2 18.1H14.2C14.2 16.2222 15.7222 14.7 17.6 14.7V12.7ZM23 18.1C23 15.1177 20.5824 12.7 17.6 12.7V14.7C19.4778 14.7 21 16.2222 21 18.1H23ZM17.6 25.7C19.2402 25.7 20.7617 25.1794 22.0044 24.2944L20.8442 22.6653C19.9291 23.317 18.8108 23.7 17.6 23.7V25.7ZM10 18.1C10 22.2974 13.4026 25.7 17.6 25.7V23.7C14.5072 23.7 12 21.1928 12 18.1H10ZM17.6 10.5C13.4026 10.5 10 13.9026 10 18.1H12C12 15.0072 14.5072 12.5 17.6 12.5V10.5ZM25.2 18.1C25.2 13.9026 21.7974 10.5 17.6 10.5V12.5C20.6928 12.5 23.2 15.0072 23.2 18.1H25.2ZM23.7945 22.5042C24.6794 21.2615 25.2 19.7401 25.2 18.1H23.2C23.2 19.3107 22.817 20.429 22.1653 21.3441L23.7945 22.5042ZM22.2728 22.6313L26.4708 26.8292L27.885 25.415L23.687 21.217L22.2728 22.6313ZM26.4708 26.8292C26.5098 26.8683 26.5098 26.9316 26.4708 26.9707L27.885 28.3849C28.7051 27.5648 28.7051 26.2351 27.885 25.415L26.4708 26.8292ZM26.4708 26.9707C26.4317 27.0097 26.3684 27.0097 26.3293 26.9707L24.9151 28.3849C25.7352 29.205 27.0649 29.205 27.885 28.3849L26.4708 26.9707ZM26.3293 26.9707L22.1314 22.7727L20.7172 24.1869L24.9151 28.3849L26.3293 26.9707Z" fill="#F3F3F3" mask="url(#path-4-outside-1_1410_3900)"/>
<circle cx="17.6" cy="18.1001" r="4.40001" fill="white"/>
</svg>
