<svg width="20" height="20" viewBox="0 0 20 20" fill="none" xmlns="http://www.w3.org/2000/svg">
<mask id="path-1-outside-1_1410_3865" maskUnits="userSpaceOnUse" x="1" y="2" width="16" height="10" fill="black">
<rect fill="white" x="1" y="2" width="16" height="10"/>
<path d="M11.1921 6.56276C11.212 8.51013 9.65343 10.0417 7.74027 10.0264C7.73653 10.0266 7.73229 10.0265 7.72838 10.0265L5.53922 10.0029C3.60839 9.98216 2.02095 8.39446 2.00021 6.46391C1.97928 4.53325 3.53325 2.97928 5.46391 3.00021L6.67271 3.01321C6.99326 3.01666 7.16688 3.40103 6.95117 3.63346C6.67628 3.92969 6.4417 4.26891 6.26119 4.6425C6.20008 4.76901 6.07295 4.84942 5.93124 4.84789L5.50491 4.84331C4.59191 4.83349 3.84212 5.55433 3.84298 6.4672C3.84386 7.38908 4.59946 8.15016 5.5194 8.16005L7.7084 8.18375C8.62678 8.19363 9.35905 7.45747 9.34921 6.54294C9.34781 6.42249 9.33267 6.31487 9.31704 6.23462C9.30592 6.17791 9.30815 6.11967 9.32356 6.06454C9.33897 6.00942 9.36713 5.95894 9.40579 5.91712C9.56954 5.74033 9.80664 5.62652 10.0787 5.62944L10.7645 5.6368C10.9444 5.63874 11.0979 5.7704 11.1313 5.9478C11.1695 6.15099 11.1899 6.35677 11.1921 6.56276ZM15.7834 6.61202C15.7627 4.68147 14.1752 3.09377 12.2444 3.07301L10.0552 3.04947C10.0513 3.04943 10.0471 3.04938 10.0434 3.0495C8.1302 3.03424 6.5716 4.56581 6.59154 6.51317C6.59375 6.71915 6.61409 6.92492 6.6523 7.12811C6.68571 7.3055 6.83926 7.43717 7.01908 7.4391L7.70497 7.44646C7.97699 7.44939 8.21408 7.33557 8.37783 7.15878C8.41649 7.11697 8.44465 7.06648 8.46006 7.01136C8.47547 6.95623 8.4777 6.89799 8.46658 6.84128C8.45095 6.76103 8.43582 6.65341 8.43441 6.53296C8.42457 5.61843 9.15685 4.88227 10.0752 4.89215L12.2642 4.91585C13.1842 4.92574 13.9397 5.68681 13.9406 6.6087C13.9415 7.52157 13.1917 8.24243 12.2787 8.23259L11.8524 8.22801C11.7107 8.22649 11.5835 8.30689 11.5224 8.4334C11.3419 8.80699 11.1073 9.14621 10.8325 9.44244C10.6168 9.67489 10.7904 10.0592 11.1109 10.0627L12.3197 10.0757C14.2504 10.0966 15.8043 8.54269 15.7834 6.61202Z"/>
</mask>
<path d="M11.1921 6.56276C11.212 8.51013 9.65343 10.0417 7.74027 10.0264C7.73653 10.0266 7.73229 10.0265 7.72838 10.0265L5.53922 10.0029C3.60839 9.98216 2.02095 8.39446 2.00021 6.46391C1.97928 4.53325 3.53325 2.97928 5.46391 3.00021L6.67271 3.01321C6.99326 3.01666 7.16688 3.40103 6.95117 3.63346C6.67628 3.92969 6.4417 4.26891 6.26119 4.6425C6.20008 4.76901 6.07295 4.84942 5.93124 4.84789L5.50491 4.84331C4.59191 4.83349 3.84212 5.55433 3.84298 6.4672C3.84386 7.38908 4.59946 8.15016 5.5194 8.16005L7.7084 8.18375C8.62678 8.19363 9.35905 7.45747 9.34921 6.54294C9.34781 6.42249 9.33267 6.31487 9.31704 6.23462C9.30592 6.17791 9.30815 6.11967 9.32356 6.06454C9.33897 6.00942 9.36713 5.95894 9.40579 5.91712C9.56954 5.74033 9.80664 5.62652 10.0787 5.62944L10.7645 5.6368C10.9444 5.63874 11.0979 5.7704 11.1313 5.9478C11.1695 6.15099 11.1899 6.35677 11.1921 6.56276ZM15.7834 6.61202C15.7627 4.68147 14.1752 3.09377 12.2444 3.07301L10.0552 3.04947C10.0513 3.04943 10.0471 3.04938 10.0434 3.0495C8.1302 3.03424 6.5716 4.56581 6.59154 6.51317C6.59375 6.71915 6.61409 6.92492 6.6523 7.12811C6.68571 7.3055 6.83926 7.43717 7.01908 7.4391L7.70497 7.44646C7.97699 7.44939 8.21408 7.33557 8.37783 7.15878C8.41649 7.11697 8.44465 7.06648 8.46006 7.01136C8.47547 6.95623 8.4777 6.89799 8.46658 6.84128C8.45095 6.76103 8.43582 6.65341 8.43441 6.53296C8.42457 5.61843 9.15685 4.88227 10.0752 4.89215L12.2642 4.91585C13.1842 4.92574 13.9397 5.68681 13.9406 6.6087C13.9415 7.52157 13.1917 8.24243 12.2787 8.23259L11.8524 8.22801C11.7107 8.22649 11.5835 8.30689 11.5224 8.4334C11.3419 8.80699 11.1073 9.14621 10.8325 9.44244C10.6168 9.67489 10.7904 10.0592 11.1109 10.0627L12.3197 10.0757C14.2504 10.0966 15.8043 8.54269 15.7834 6.61202Z" fill="#4A7BB5"/>
<path d="M11.1921 6.56276L12.192 6.55253L12.192 6.55199L11.1921 6.56276ZM7.74027 10.0264L7.74826 9.02646L7.72784 9.0263L7.70743 9.02697L7.74027 10.0264ZM7.72838 10.0265L7.73925 9.02652L7.73913 9.02652L7.72838 10.0265ZM5.53922 10.0029L5.52846 11.0029L5.52846 11.0029L5.53922 10.0029ZM2.00021 6.46391L3.00015 6.45317L3.00015 6.45308L2.00021 6.46391ZM5.46391 3.00021L5.45308 4.00015L5.45316 4.00015L5.46391 3.00021ZM6.67271 3.01321L6.66196 4.01315L6.66196 4.01315L6.67271 3.01321ZM6.95117 3.63346L6.21818 2.95322L6.21816 2.95325L6.95117 3.63346ZM6.26119 4.6425L5.36079 4.20745L5.36076 4.20751L6.26119 4.6425ZM5.93124 4.84789L5.92048 5.84783L5.92049 5.84783L5.93124 4.84789ZM5.50491 4.84331L5.51566 3.84337L5.51566 3.84337L5.50491 4.84331ZM3.84298 6.4672L2.84298 6.46814L2.84298 6.46815L3.84298 6.4672ZM5.5194 8.16005L5.53023 7.16011L5.53015 7.16011L5.5194 8.16005ZM7.7084 8.18375L7.69758 9.1837L7.69765 9.1837L7.7084 8.18375ZM9.34921 6.54294L10.3492 6.53219L10.3491 6.53125L9.34921 6.54294ZM9.31704 6.23462L10.2986 6.04339L10.2983 6.04218L9.31704 6.23462ZM9.40579 5.91712L8.67215 5.23759L8.67156 5.23822L9.40579 5.91712ZM10.0787 5.62944L10.0679 6.62938L10.0679 6.62938L10.0787 5.62944ZM10.7645 5.6368L10.7753 4.63686L10.7753 4.63686L10.7645 5.6368ZM11.1313 5.9478L12.1141 5.76297L12.114 5.76273L11.1313 5.9478ZM15.7834 6.61202L14.7835 6.62276L14.7835 6.62286L15.7834 6.61202ZM12.2444 3.07301L12.2337 4.07295L12.2337 4.07295L12.2444 3.07301ZM10.0552 3.04947L10.066 2.04953L10.0659 2.04953L10.0552 3.04947ZM10.0434 3.0495L10.0354 4.04947L10.0557 4.04963L10.0761 4.04897L10.0434 3.0495ZM6.59154 6.51317L5.59159 6.52341L5.59159 6.52393L6.59154 6.51317ZM6.6523 7.12811L5.66953 7.31294L5.66958 7.31317L6.6523 7.12811ZM7.01908 7.4391L7.00833 8.43904L7.00835 8.43904L7.01908 7.4391ZM7.70497 7.44646L7.71572 6.44652L7.7157 6.44652L7.70497 7.44646ZM8.37783 7.15878L9.11148 7.83831L9.11206 7.83768L8.37783 7.15878ZM8.46658 6.84128L7.48504 7.03252L7.48528 7.03373L8.46658 6.84128ZM8.43441 6.53296L7.43447 6.54371L7.43448 6.54466L8.43441 6.53296ZM10.0752 4.89215L10.086 3.8922L10.086 3.8922L10.0752 4.89215ZM12.2642 4.91585L12.2534 5.91579L12.2535 5.91579L12.2642 4.91585ZM13.9406 6.6087L14.9406 6.60776L14.9406 6.60774L13.9406 6.6087ZM12.2787 8.23259L12.2895 7.23265L12.2895 7.23265L12.2787 8.23259ZM11.8524 8.22801L11.8416 9.22795L11.8416 9.22795L11.8524 8.22801ZM11.5224 8.4334L12.4228 8.86845L12.4229 8.86839L11.5224 8.4334ZM10.8325 9.44244L10.0994 8.76223L10.0994 8.76225L10.8325 9.44244ZM11.1109 10.0627L11.1002 11.0626L11.1002 11.0626L11.1109 10.0627ZM12.3197 10.0757L12.3306 9.07575L12.3305 9.07575L12.3197 10.0757ZM10.1921 6.573C10.2063 7.95596 9.10705 9.03731 7.74826 9.02646L7.73228 11.0264C10.1998 11.0461 12.2177 9.06429 12.192 6.55253L10.1921 6.573ZM7.70743 9.02697C7.72087 9.02653 7.731 9.02651 7.73495 9.02651C7.73889 9.02651 7.7419 9.02655 7.73925 9.02652L7.71751 11.0264C7.71877 11.0264 7.72585 11.0265 7.73383 11.0265C7.7418 11.0265 7.75592 11.0265 7.77312 11.0259L7.70743 9.02697ZM7.73913 9.02652L5.54997 9.00298L5.52846 11.0029L7.71763 11.0264L7.73913 9.02652ZM5.54997 9.00298C4.16306 8.98807 3.01505 7.83988 3.00015 6.45317L1.00027 6.47466C1.02685 8.94905 3.05372 10.9763 5.52846 11.0029L5.54997 9.00298ZM3.00015 6.45308C2.9853 5.08314 4.08314 3.9853 5.45308 4.00015L5.47475 2.00027C2.98335 1.97327 0.973266 3.98335 1.00027 6.47475L3.00015 6.45308ZM5.45316 4.00015L6.66196 4.01315L6.68346 2.01327L5.47467 2.00027L5.45316 4.00015ZM6.66196 4.01315C6.39189 4.01025 6.18706 3.83883 6.10111 3.64782C6.01409 3.45443 6.01891 3.16795 6.21818 2.95322L7.68416 4.3137C8.52791 3.40452 7.81612 2.02545 6.68346 2.01327L6.66196 4.01315ZM6.21816 2.95325C5.87744 3.32041 5.58576 3.74183 5.36079 4.20745L7.1616 5.07755C7.29765 4.79598 7.47512 4.53897 7.68418 4.31368L6.21816 2.95325ZM5.36076 4.20751C5.46563 3.99043 5.6902 3.84524 5.94199 3.84795L5.92049 5.84783C6.4557 5.85359 6.93453 5.54758 7.16163 5.07749L5.36076 4.20751ZM5.94199 3.84795L5.51566 3.84337L5.49415 5.84325L5.92048 5.84783L5.94199 3.84795ZM5.51566 3.84337C4.06331 3.82775 2.84158 4.98109 2.84298 6.46814L4.84298 6.46626C4.84266 6.12757 5.1205 5.83923 5.49415 5.84325L5.51566 3.84337ZM2.84298 6.46815C2.84438 7.93853 4.04181 9.14422 5.50865 9.15999L5.53015 7.16011C5.15712 7.1561 4.84334 6.83962 4.84298 6.46625L2.84298 6.46815ZM5.50857 9.15999L7.69758 9.1837L7.71923 7.18381L5.53023 7.16011L5.50857 9.15999ZM7.69765 9.1837C9.17825 9.19962 10.365 8.00583 10.3492 6.53219L8.34927 6.5537C8.35309 6.90911 8.0753 7.18764 7.71916 7.18381L7.69765 9.1837ZM10.3491 6.53125C10.3469 6.33646 10.3227 6.16719 10.2986 6.04339L8.33549 6.42585C8.34264 6.46254 8.34874 6.50852 8.34928 6.55464L10.3491 6.53125ZM10.2983 6.04218C10.317 6.13712 10.3137 6.23702 10.2866 6.33376L8.36048 5.79533C8.30262 6.00231 8.29487 6.21869 8.33573 6.42706L10.2983 6.04218ZM10.2866 6.33376C10.2596 6.4306 10.2096 6.52075 10.14 6.59603L8.67156 5.23822C8.52463 5.39713 8.41837 5.58823 8.36048 5.79533L10.2866 6.33376ZM10.1394 6.59666C10.1307 6.6061 10.1193 6.6146 10.1053 6.62079C10.0902 6.62746 10.0763 6.62947 10.0679 6.62938L10.0894 4.6295C9.52206 4.6234 9.0186 4.86354 8.67215 5.23759L10.1394 6.59666ZM10.0679 6.62938L10.7538 6.63674L10.7753 4.63686L10.0894 4.6295L10.0679 6.62938ZM10.7538 6.63674C10.4444 6.63342 10.2011 6.41177 10.1486 6.13286L12.114 5.76273C11.9947 5.12903 11.4444 4.64405 10.7753 4.63686L10.7538 6.63674ZM10.1485 6.13262C10.176 6.27862 10.1906 6.42617 10.1921 6.57353L12.192 6.55199C12.1892 6.28738 12.1631 6.02336 12.1141 5.76297L10.1485 6.13262ZM16.7834 6.60128C16.7568 4.12689 14.7299 2.09968 12.2552 2.07307L12.2337 4.07295C13.6206 4.08787 14.7686 5.23605 14.7835 6.62276L16.7834 6.60128ZM12.2552 2.07307L10.066 2.04953L10.0445 4.04941L12.2337 4.07295L12.2552 2.07307ZM10.0659 2.04953C10.0649 2.04951 10.0578 2.04943 10.0499 2.04942C10.042 2.04942 10.0278 2.04948 10.0106 2.05004L10.0761 4.04897C10.0626 4.04941 10.0525 4.04943 10.0486 4.04942C10.0447 4.04942 10.0417 4.04938 10.0445 4.04941L10.0659 2.04953ZM10.0513 2.04954C7.58383 2.02985 5.56588 4.01163 5.59159 6.52341L7.59148 6.50294C7.57733 5.11998 8.67658 4.03863 10.0354 4.04947L10.0513 2.04954ZM5.59159 6.52393C5.59444 6.78854 5.62056 7.05256 5.66953 7.31294L7.63507 6.94327C7.60761 6.79728 7.59306 6.64975 7.59148 6.50241L5.59159 6.52393ZM5.66958 7.31317C5.78892 7.94692 6.33927 8.43185 7.00833 8.43904L7.02983 6.43916C7.33924 6.44248 7.5825 6.66408 7.63503 6.94304L5.66958 7.31317ZM7.00835 8.43904L7.69424 8.4464L7.7157 6.44652L7.02981 6.43916L7.00835 8.43904ZM7.69422 8.4464C8.26157 8.4525 8.76502 8.21236 9.11147 7.83831L7.64419 6.47925C7.65293 6.46981 7.6643 6.4613 7.67832 6.45511C7.69344 6.44844 7.70733 6.44643 7.71572 6.44652L7.69422 8.4464ZM9.11206 7.83768C9.25899 7.67878 9.36525 7.48767 9.42314 7.28057L7.49698 6.74214C7.52406 6.64529 7.574 6.55515 7.6436 6.47987L9.11206 7.83768ZM9.42314 7.28057C9.481 7.07359 9.48876 6.85721 9.44789 6.64884L7.48528 7.03373C7.46665 6.93878 7.46994 6.83887 7.49698 6.74214L9.42314 7.28057ZM9.44813 6.65005C9.44098 6.61336 9.43488 6.56739 9.43434 6.52126L7.43448 6.54466C7.43675 6.73944 7.46092 6.90871 7.48504 7.03252L9.44813 6.65005ZM9.43435 6.52221C9.43053 6.16679 9.70832 5.88826 10.0645 5.89209L10.086 3.8922C8.60537 3.87628 7.41862 5.07007 7.43447 6.54371L9.43435 6.52221ZM10.0644 5.89209L12.2534 5.91579L12.275 3.91591L10.086 3.8922L10.0644 5.89209ZM12.2535 5.91579C12.6265 5.9198 12.9403 6.23625 12.9406 6.60967L14.9406 6.60774C14.9392 5.13736 13.7418 3.93168 12.275 3.91591L12.2535 5.91579ZM12.9406 6.60964C12.941 6.94836 12.6631 7.23668 12.2895 7.23265L12.2679 9.23254C13.7203 9.24818 14.942 8.09479 14.9406 6.60776L12.9406 6.60964ZM12.2895 7.23265L11.8631 7.22807L11.8416 9.22795L12.268 9.23254L12.2895 7.23265ZM11.8631 7.22807C11.3279 7.22231 10.8491 7.52831 10.622 7.99841L12.4229 8.86839C12.318 9.08547 12.0934 9.23066 11.8416 9.22795L11.8631 7.22807ZM10.622 7.99835C10.486 8.27992 10.3085 8.53693 10.0994 8.76223L11.5655 10.1227C11.9062 9.75549 12.1979 9.33407 12.4228 8.86845L10.622 7.99835ZM10.0994 8.76225C9.25585 9.67136 9.96739 11.0505 11.1002 11.0626L11.1217 9.06275C11.3917 9.06566 11.5966 9.23707 11.6825 9.42809C11.7695 9.62149 11.7647 9.90793 11.5655 10.1226L10.0994 8.76225ZM11.1002 11.0626L12.309 11.0756L12.3305 9.07575L11.1217 9.06275L11.1002 11.0626ZM12.3089 11.0756C14.8003 11.1027 16.8104 9.09258 16.7834 6.60118L14.7835 6.62286C14.7983 7.99279 13.7005 9.09062 12.3306 9.07575L12.3089 11.0756Z" fill="#F3F3F3" mask="url(#path-1-outside-1_1410_3865)"/>
<mask id="path-3-outside-2_1410_3865" maskUnits="userSpaceOnUse" x="5.55212" y="6.19824" width="13" height="13" fill="black">
<rect fill="white" x="5.55212" y="6.19824" width="13" height="13"/>
<path fill-rule="evenodd" clip-rule="evenodd" d="M13.8855 11.5983C13.8855 13.2183 12.5722 14.5316 10.9521 14.5316C9.3321 14.5316 8.0188 13.2183 8.0188 11.5983C8.0188 9.97822 9.3321 8.66491 10.9521 8.66491C12.5722 8.66491 13.8855 9.97822 13.8855 11.5983ZM13.5016 15.1848C12.7823 15.697 11.9024 15.9983 10.9521 15.9983C8.52208 15.9983 6.55212 14.0283 6.55212 11.5983C6.55212 9.1682 8.52208 7.19824 10.9521 7.19824C13.3822 7.19824 15.3522 9.1682 15.3522 11.5983C15.3522 12.5485 15.0509 13.4285 14.5387 14.1477L17.3374 16.9464C17.6237 17.2328 17.6237 17.6971 17.3374 17.9835C17.051 18.2699 16.5867 18.2699 16.3003 17.9835L13.5016 15.1848Z"/>
</mask>
<path fill-rule="evenodd" clip-rule="evenodd" d="M13.8855 11.5983C13.8855 13.2183 12.5722 14.5316 10.9521 14.5316C9.3321 14.5316 8.0188 13.2183 8.0188 11.5983C8.0188 9.97822 9.3321 8.66491 10.9521 8.66491C12.5722 8.66491 13.8855 9.97822 13.8855 11.5983ZM13.5016 15.1848C12.7823 15.697 11.9024 15.9983 10.9521 15.9983C8.52208 15.9983 6.55212 14.0283 6.55212 11.5983C6.55212 9.1682 8.52208 7.19824 10.9521 7.19824C13.3822 7.19824 15.3522 9.1682 15.3522 11.5983C15.3522 12.5485 15.0509 13.4285 14.5387 14.1477L17.3374 16.9464C17.6237 17.2328 17.6237 17.6971 17.3374 17.9835C17.051 18.2699 16.5867 18.2699 16.3003 17.9835L13.5016 15.1848Z" fill="#808080"/>
<path d="M13.5016 15.1848L14.2087 14.4777L13.6106 13.8796L12.9215 14.3702L13.5016 15.1848ZM14.5387 14.1477L13.7241 13.5677L13.2335 14.2567L13.8316 14.8548L14.5387 14.1477ZM10.9521 15.5316C13.1245 15.5316 14.8855 13.7706 14.8855 11.5983H12.8855C12.8855 12.666 12.0199 13.5316 10.9521 13.5316V15.5316ZM7.0188 11.5983C7.0188 13.7706 8.77981 15.5316 10.9521 15.5316V13.5316C9.88438 13.5316 9.0188 12.666 9.0188 11.5983H7.0188ZM10.9521 7.66491C8.77981 7.66491 7.0188 9.42593 7.0188 11.5983H9.0188C9.0188 10.5305 9.88438 9.66491 10.9521 9.66491V7.66491ZM14.8855 11.5983C14.8855 9.42593 13.1245 7.66491 10.9521 7.66491V9.66491C12.0199 9.66491 12.8855 10.5305 12.8855 11.5983H14.8855ZM10.9521 16.9983C12.1171 16.9983 13.1986 16.6282 14.0817 15.9994L12.9215 14.3702C12.3661 14.7658 11.6877 14.9983 10.9521 14.9983V16.9983ZM5.55212 11.5983C5.55212 14.5806 7.96979 16.9983 10.9521 16.9983V14.9983C9.07436 14.9983 7.55212 13.476 7.55212 11.5983H5.55212ZM10.9521 6.19824C7.96979 6.19824 5.55212 8.61591 5.55212 11.5983H7.55212C7.55212 9.72048 9.07436 8.19824 10.9521 8.19824V6.19824ZM16.3522 11.5983C16.3522 8.61591 13.9345 6.19824 10.9521 6.19824V8.19824C12.8299 8.19824 14.3522 9.72048 14.3522 11.5983H16.3522ZM15.3533 14.7278C15.9821 13.8447 16.3522 12.7632 16.3522 11.5983H14.3522C14.3522 12.3338 14.1197 13.0122 13.7241 13.5677L15.3533 14.7278ZM13.8316 14.8548L16.6303 17.6535L18.0445 16.2393L15.2458 13.4406L13.8316 14.8548ZM16.6303 17.6535C16.5261 17.5494 16.5261 17.3805 16.6303 17.2764L18.0445 18.6906C18.7214 18.0137 18.7214 16.9162 18.0445 16.2393L16.6303 17.6535ZM16.6303 17.2764C16.7344 17.1722 16.9032 17.1722 17.0074 17.2764L15.5932 18.6906C16.2701 19.3675 17.3676 19.3675 18.0445 18.6906L16.6303 17.2764ZM17.0074 17.2764L14.2087 14.4777L12.7945 15.8919L15.5932 18.6906L17.0074 17.2764Z" fill="#F3F3F3" mask="url(#path-3-outside-2_1410_3865)"/>
<circle cx="10.9521" cy="11.5984" r="2.93334" fill="white"/>
</svg>
