<svg width="18" height="21" viewBox="0 0 18 21" fill="none" xmlns="http://www.w3.org/2000/svg">
<path d="M11.1399 8.35909L11.1399 8.35935C11.1444 8.79372 11.0801 9.21015 10.9575 9.599C11.0649 9.55297 11.1829 9.52843 11.3056 9.52975L11.732 9.53433L11.732 9.53433C12.3753 9.54126 12.8891 9.03668 12.8885 8.41089L11.1399 8.35909ZM11.1399 8.35909C11.1374 8.12379 11.1142 7.88889 11.0706 7.65709L11.0705 7.65697C11.0381 7.48447 10.9557 7.32956 10.8392 7.20813M11.1399 8.35909L10.8392 7.20813M9.68113 11.4648C9.00064 12.0118 8.13313 12.3341 7.19088 12.3282C7.18107 12.3283 7.17331 12.3282 7.17124 12.3281L7.17087 12.3281L7.17081 12.3281L4.9817 12.3046C2.77893 12.2809 0.971793 10.4735 0.948101 8.27104L9.68113 11.4648ZM9.68113 11.4648C9.67262 11.9221 10.0429 12.3589 10.5534 12.3644L11.7621 12.3774C13.9732 12.4014 15.7552 10.6194 15.7312 8.40836C15.7076 6.20589 13.9004 4.39844 11.6976 4.37475L9.50848 4.35121L9.50845 4.35121L9.50806 4.3512C9.50614 4.35118 9.4985 4.35107 9.48879 4.35118C8.54644 4.34515 7.67881 4.66752 6.99824 5.21456C7.00676 4.75725 6.63641 4.32043 6.12595 4.31495L4.9172 4.30195C4.91718 4.30195 4.91717 4.30195 4.91715 4.30195C2.70615 4.27801 0.924164 6.05999 0.948101 8.27099L9.68113 11.4648ZM8.27825 8.57164C8.2914 8.50018 8.2979 8.42625 8.29711 8.3505L8.27825 8.57164ZM8.27825 8.57164L7.91445 8.64299L8.27817 8.57213L8.27825 8.57164ZM10.8392 7.20813L11.7067 7.21753H11.7067C12.3532 7.22448 12.8879 7.76323 12.8885 8.41088L10.8392 7.20813ZM5.37373 7.14957C5.49641 7.15089 5.61443 7.12635 5.72191 7.08031C5.59928 7.46918 5.53498 7.88561 5.53943 8.32L5.53943 8.32026C5.54196 8.55555 5.56519 8.79045 5.60878 9.02223L5.6088 9.02235C5.64129 9.19485 5.72363 9.34976 5.8402 9.47118L4.97268 9.46179L4.97264 9.46179C4.32616 9.45484 3.79146 8.91606 3.79085 8.26844C3.79026 7.64266 4.30407 7.13807 4.94739 7.14499L5.37373 7.14957Z" fill="#4A7BB5" stroke="#F3F3F3"/>
<mask id="path-2-outside-1_1410_3865" maskUnits="userSpaceOnUse" x="5" y="8" width="13" height="13" fill="black">
<rect fill="white" x="5" y="8" width="13" height="13"/>
<path fill-rule="evenodd" clip-rule="evenodd" d="M13.3334 13.4C13.3334 15.0201 12.0201 16.3334 10.4 16.3334C8.77997 16.3334 7.46667 15.0201 7.46667 13.4C7.46667 11.78 8.77997 10.4667 10.4 10.4667C12.0201 10.4667 13.3334 11.78 13.3334 13.4ZM12.9495 16.9866C12.2302 17.4988 11.3503 17.8 10.4 17.8C7.96995 17.8 6 15.8301 6 13.4C6 10.97 7.96995 9 10.4 9C12.8301 9 14.8 10.97 14.8 13.4C14.8 14.3503 14.4988 15.2302 13.9866 15.9495L16.7852 18.7481C17.0716 19.0345 17.0716 19.4989 16.7852 19.7852C16.4989 20.0716 16.0345 20.0716 15.7481 19.7852L12.9495 16.9866Z"/>
</mask>
<path fill-rule="evenodd" clip-rule="evenodd" d="M13.3334 13.4C13.3334 15.0201 12.0201 16.3334 10.4 16.3334C8.77997 16.3334 7.46667 15.0201 7.46667 13.4C7.46667 11.78 8.77997 10.4667 10.4 10.4667C12.0201 10.4667 13.3334 11.78 13.3334 13.4ZM12.9495 16.9866C12.2302 17.4988 11.3503 17.8 10.4 17.8C7.96995 17.8 6 15.8301 6 13.4C6 10.97 7.96995 9 10.4 9C12.8301 9 14.8 10.97 14.8 13.4C14.8 14.3503 14.4988 15.2302 13.9866 15.9495L16.7852 18.7481C17.0716 19.0345 17.0716 19.4989 16.7852 19.7852C16.4989 20.0716 16.0345 20.0716 15.7481 19.7852L12.9495 16.9866Z" fill="#808080"/>
<path d="M12.9495 16.9866L13.6566 16.2795L13.0584 15.6813L12.3694 16.172L12.9495 16.9866ZM13.9866 15.9495L13.172 15.3694L12.6813 16.0584L13.2795 16.6566L13.9866 15.9495ZM10.4 17.3334C12.5723 17.3334 14.3334 15.5723 14.3334 13.4H12.3334C12.3334 14.4678 11.4678 15.3334 10.4 15.3334V17.3334ZM6.46667 13.4C6.46667 15.5723 8.22769 17.3334 10.4 17.3334V15.3334C9.33226 15.3334 8.46667 14.4678 8.46667 13.4H6.46667ZM10.4 9.46667C8.22769 9.46667 6.46667 11.2277 6.46667 13.4H8.46667C8.46667 12.3323 9.33226 11.4667 10.4 11.4667V9.46667ZM14.3334 13.4C14.3334 11.2277 12.5723 9.46667 10.4 9.46667V11.4667C11.4678 11.4667 12.3334 12.3323 12.3334 13.4H14.3334ZM10.4 18.8C11.565 18.8 12.6465 18.43 13.5296 17.8011L12.3694 16.172C11.8139 16.5676 11.1356 16.8 10.4 16.8V18.8ZM5 13.4C5 16.3824 7.41767 18.8 10.4 18.8V16.8C8.52224 16.8 7 15.2778 7 13.4H5ZM10.4 8C7.41767 8 5 10.4177 5 13.4H7C7 11.5222 8.52224 10 10.4 10V8ZM15.8 13.4C15.8 10.4177 13.3824 8 10.4 8V10C12.2778 10 13.8 11.5222 13.8 13.4H15.8ZM14.8011 16.5296C15.43 15.6465 15.8 14.565 15.8 13.4H13.8C13.8 14.1356 13.5676 14.8139 13.172 15.3694L14.8011 16.5296ZM13.2795 16.6566L16.0781 19.4552L17.4923 18.041L14.6937 15.2424L13.2795 16.6566ZM16.0781 19.4552C15.974 19.3511 15.974 19.1823 16.0781 19.0781L17.4923 20.4923C18.1693 19.8154 18.1693 18.7179 17.4923 18.041L16.0781 19.4552ZM16.0781 19.0781C16.1823 18.974 16.3511 18.974 16.4552 19.0781L15.041 20.4923C15.7179 21.1693 16.8154 21.1693 17.4923 20.4923L16.0781 19.0781ZM16.4552 19.0781L13.6566 16.2795L12.2424 17.6937L15.041 20.4923L16.4552 19.0781Z" fill="#F3F3F3" mask="url(#path-2-outside-1_1410_3865)"/>
<circle cx="10.4" cy="13.4" r="2.93334" fill="white"/>
</svg>
