<svg width="35" height="34" viewBox="0 0 35 34" fill="none" xmlns="http://www.w3.org/2000/svg">
<rect x="4" y="6" width="26" height="16" fill="white"/>
<path fill-rule="evenodd" clip-rule="evenodd" d="M5 7V21H29V7H5ZM4 5C3.44772 5 3 5.44772 3 6V22C3 22.5523 3.44771 23 4 23H30C30.5523 23 31 22.5523 31 22V6C31 5.44772 30.5523 5 30 5H4ZM15 24H19V28H23.5L25.5 30H19H15H13V28H15V24Z" fill="#808080"/>
<mask id="path-3-outside-1_1409_3841" maskUnits="userSpaceOnUse" x="18" y="0" width="17" height="17" fill="black">
<rect fill="white" x="18" width="17" height="17"/>
<path fill-rule="evenodd" clip-rule="evenodd" d="M29 7C29 9.20914 27.2091 11 25 11C22.7909 11 21 9.20914 21 7C21 4.79086 22.7909 3 25 3C27.2091 3 29 4.79086 29 7ZM28.4765 11.8907C27.4957 12.5892 26.2958 13 25 13C21.6863 13 19 10.3137 19 7C19 3.68629 21.6863 1 25 1C28.3137 1 31 3.68629 31 7C31 8.29583 30.5892 9.49572 29.8907 10.4765L33.7071 14.2928C34.0976 14.6834 34.0976 15.3165 33.7071 15.7071C33.3165 16.0976 32.6834 16.0976 32.2928 15.7071L28.4765 11.8907Z"/>
</mask>
<path fill-rule="evenodd" clip-rule="evenodd" d="M29 7C29 9.20914 27.2091 11 25 11C22.7909 11 21 9.20914 21 7C21 4.79086 22.7909 3 25 3C27.2091 3 29 4.79086 29 7ZM28.4765 11.8907C27.4957 12.5892 26.2958 13 25 13C21.6863 13 19 10.3137 19 7C19 3.68629 21.6863 1 25 1C28.3137 1 31 3.68629 31 7C31 8.29583 30.5892 9.49572 29.8907 10.4765L33.7071 14.2928C34.0976 14.6834 34.0976 15.3165 33.7071 15.7071C33.3165 16.0976 32.6834 16.0976 32.2928 15.7071L28.4765 11.8907Z" fill="#808080"/>
<path d="M28.4765 11.8907L29.1836 11.1836L28.5855 10.5855L27.8965 11.0762L28.4765 11.8907ZM29.8907 10.4765L29.0762 9.89647L28.5855 10.5855L29.1836 11.1836L29.8907 10.4765ZM25 12C27.7614 12 30 9.76142 30 7H28C28 8.65685 26.6569 10 25 10V12ZM20 7C20 9.76142 22.2386 12 25 12V10C23.3431 10 22 8.65685 22 7H20ZM25 2C22.2386 2 20 4.23858 20 7H22C22 5.34315 23.3431 4 25 4V2ZM30 7C30 4.23858 27.7614 2 25 2V4C26.6569 4 28 5.34315 28 7H30ZM25 14C26.5105 14 27.912 13.5204 29.0566 12.7053L27.8965 11.0762C27.0794 11.658 26.0811 12 25 12V14ZM18 7C18 10.866 21.134 14 25 14V12C22.2386 12 20 9.76142 20 7H18ZM25 0C21.134 0 18 3.13401 18 7H20C20 4.23858 22.2386 2 25 2V0ZM32 7C32 3.13401 28.866 0 25 0V2C27.7614 2 30 4.23858 30 7H32ZM30.7053 11.0566C31.5204 9.912 32 8.51052 32 7H30C30 8.08114 29.658 9.07943 29.0762 9.89647L30.7053 11.0566ZM29.1836 11.1836L33 15L34.4142 13.5857L30.5979 9.76943L29.1836 11.1836ZM33 15L34.4142 16.4142C35.1952 15.6331 35.1952 14.3668 34.4142 13.5857L33 15ZM33 15L31.5857 16.4142C32.3668 17.1952 33.6331 17.1952 34.4142 16.4142L33 15ZM33 15L29.1836 11.1836L27.7694 12.5979L31.5857 16.4142L33 15Z" fill="#F3F3F3" mask="url(#path-3-outside-1_1409_3841)"/>
<circle cx="25" cy="7" r="4" fill="white"/>
<rect y="14" width="13" height="20" fill="#F3F3F3"/>
<path d="M1 15H12V33H1V15Z" fill="white"/>
<path fill-rule="evenodd" clip-rule="evenodd" d="M11 16H2V32H11V16ZM1 15V33H12V15H1Z" fill="#808080"/>
<path fill-rule="evenodd" clip-rule="evenodd" d="M4 31H1.5V30H11.5V31H9V32.5H8V31H5V32.5H4V31Z" fill="#808080"/>
<path d="M3 17H10V29H3V17Z" fill="#4A7DB1"/>
</svg>
