<svg width="38" height="36" viewBox="0 0 38 36" fill="none" xmlns="http://www.w3.org/2000/svg">
<rect x="6" y="6" width="26" height="16" fill="white"/>
<path fill-rule="evenodd" clip-rule="evenodd" d="M7 7V21H31V7H7ZM6 5C5.44772 5 5 5.44772 5 6V22C5 22.5523 5.44771 23 6 23H32C32.5523 23 33 22.5523 33 22V6C33 5.44772 32.5523 5 32 5H6ZM17 24H21V28H25.5L27.5 30H21H17H15V28H17V24Z" fill="#808080"/>
<mask id="path-3-outside-1_1409_3841" maskUnits="userSpaceOnUse" x="20" y="0" width="17" height="17" fill="black">
<rect fill="white" x="20" width="17" height="17"/>
<path fill-rule="evenodd" clip-rule="evenodd" d="M31 7C31 9.20914 29.2091 11 27 11C24.7909 11 23 9.20914 23 7C23 4.79086 24.7909 3 27 3C29.2091 3 31 4.79086 31 7ZM30.4765 11.8907C29.4957 12.5892 28.2958 13 27 13C23.6863 13 21 10.3137 21 7C21 3.68629 23.6863 1 27 1C30.3137 1 33 3.68629 33 7C33 8.29583 32.5892 9.49572 31.8907 10.4765L35.7071 14.2928C36.0976 14.6834 36.0976 15.3165 35.7071 15.7071C35.3165 16.0976 34.6834 16.0976 34.2928 15.7071L30.4765 11.8907Z"/>
</mask>
<path fill-rule="evenodd" clip-rule="evenodd" d="M31 7C31 9.20914 29.2091 11 27 11C24.7909 11 23 9.20914 23 7C23 4.79086 24.7909 3 27 3C29.2091 3 31 4.79086 31 7ZM30.4765 11.8907C29.4957 12.5892 28.2958 13 27 13C23.6863 13 21 10.3137 21 7C21 3.68629 23.6863 1 27 1C30.3137 1 33 3.68629 33 7C33 8.29583 32.5892 9.49572 31.8907 10.4765L35.7071 14.2928C36.0976 14.6834 36.0976 15.3165 35.7071 15.7071C35.3165 16.0976 34.6834 16.0976 34.2928 15.7071L30.4765 11.8907Z" fill="#808080"/>
<path d="M30.4765 11.8907L31.1836 11.1836L30.5855 10.5855L29.8965 11.0762L30.4765 11.8907ZM31.8907 10.4765L31.0762 9.89647L30.5855 10.5855L31.1836 11.1836L31.8907 10.4765ZM27 12C29.7614 12 32 9.76142 32 7H30C30 8.65685 28.6569 10 27 10V12ZM22 7C22 9.76142 24.2386 12 27 12V10C25.3431 10 24 8.65685 24 7H22ZM27 2C24.2386 2 22 4.23858 22 7H24C24 5.34315 25.3431 4 27 4V2ZM32 7C32 4.23858 29.7614 2 27 2V4C28.6569 4 30 5.34315 30 7H32ZM27 14C28.5105 14 29.912 13.5204 31.0566 12.7053L29.8965 11.0762C29.0794 11.658 28.0811 12 27 12V14ZM20 7C20 10.866 23.134 14 27 14V12C24.2386 12 22 9.76142 22 7H20ZM27 0C23.134 0 20 3.13401 20 7H22C22 4.23858 24.2386 2 27 2V0ZM34 7C34 3.13401 30.866 0 27 0V2C29.7614 2 32 4.23858 32 7H34ZM32.7053 11.0566C33.5204 9.912 34 8.51052 34 7H32C32 8.08114 31.658 9.07943 31.0762 9.89647L32.7053 11.0566ZM31.1836 11.1836L35 15L36.4142 13.5857L32.5979 9.76943L31.1836 11.1836ZM35 15L36.4142 16.4142C37.1952 15.6331 37.1952 14.3668 36.4142 13.5857L35 15ZM35 15L33.5857 16.4142C34.3668 17.1952 35.6331 17.1952 36.4142 16.4142L35 15ZM35 15L31.1836 11.1836L29.7694 12.5979L33.5857 16.4142L35 15Z" fill="#F3F3F3" mask="url(#path-3-outside-1_1409_3841)"/>
<circle cx="27" cy="7" r="4" fill="white"/>
<rect x="2" y="14" width="13" height="20" fill="#F3F3F3"/>
<path d="M3 15H14V33H3V15Z" fill="white"/>
<path fill-rule="evenodd" clip-rule="evenodd" d="M13 16H4V32H13V16ZM3 15V33H14V15H3Z" fill="#808080"/>
<path fill-rule="evenodd" clip-rule="evenodd" d="M6 31H3.5V30H13.5V31H11V32.5H10V31H7V32.5H6V31Z" fill="#808080"/>
<path d="M5 17H12V29H5V17Z" fill="#4A7DB1"/>
</svg>
