<svg  height="100%" viewBox="0 0 68 31" fill="none" xmlns="http://www.w3.org/2000/svg">
<path d="M67.9842 19.8165C67.9118 19.1575 67.8755 18.4941 67.7736 17.8397C67.3276 14.9888 66.2678 12.4255 64.0284 10.5031C61.6145 8.43117 58.7682 7.72242 55.6366 8.0734C51.8958 8.49231 49.131 10.3627 47.4304 13.714C46.2552 16.035 45.979 18.5235 46.3073 21.0913C46.6968 24.1618 47.9762 26.7523 50.4919 28.6227C53.4424 30.8146 56.7823 31.1837 60.2899 30.4862C63.1158 29.9224 65.2466 28.326 66.7954 25.928C67.2121 25.285 67.0898 24.8774 66.4082 24.6147C65.3666 24.2162 64.3205 23.8358 63.2721 23.4621C62.8735 23.3195 62.5339 23.3919 62.2508 23.7633C60.6205 25.9099 58.3968 26.4217 55.8811 25.9507C53.5194 25.5069 51.7441 23.3014 51.8052 20.8943H52.6046C57.4141 20.8943 62.2259 20.8966 67.0377 20.8921C67.8121 20.8921 68.0703 20.5886 67.9842 19.8165ZM51.7848 17.0585C51.7984 14.6401 54.3527 12.3916 57.0405 12.3984C59.7691 12.4052 62.4206 14.6786 62.4206 17.0585H51.7848Z" fill="#09478A"/>
<path d="M0.00961301 15.5325C0.00961301 13.4946 0.00734863 11.4566 0.00961301 9.41867C0.00961301 8.64651 0.181706 8.48121 0.956124 8.47895C1.96604 8.47668 2.97595 8.47668 3.98587 8.47895C4.76255 8.48121 4.97087 8.68727 4.97087 9.46848C4.97314 13.1798 4.95729 16.8911 4.98446 20.6024C4.98899 21.3225 5.07956 22.063 5.2743 22.7536C5.79964 24.5968 7.35753 25.8354 9.27546 25.9713C9.95704 26.0188 10.6658 26.0438 11.3293 25.9169C13.9084 25.4301 15.3349 23.5688 15.344 20.7293C15.3576 17.0179 15.3463 13.3066 15.3485 9.59529C15.3485 8.5899 15.4595 8.47895 16.4445 8.47895C17.4544 8.47895 18.4643 8.48574 19.4742 8.47668C20.0403 8.46989 20.3121 8.74841 20.3121 9.29413C20.3143 13.3066 20.4275 17.3214 20.2826 21.327C20.0992 26.3676 17.1487 29.7392 12.1852 30.5906C8.41047 31.2405 4.94823 30.4729 2.28532 27.4703C0.827055 25.8241 0.134154 23.8179 0.0435787 21.6463C-0.0424678 19.6129 0.0254637 17.5704 0.0254637 15.5325C0.0209349 15.5325 0.0141418 15.5325 0.00961301 15.5325Z" fill="#09478A"/>
<path d="M38.7102 29.7416C35.2298 31.5236 30.2573 31.0255 27.5513 28.6162C25.9255 27.167 25.0469 25.3124 24.7956 23.1817C24.7254 22.5703 24.6891 21.9566 24.6665 21.3384V16.0919C24.739 15.6866 25.013 15.5077 25.4953 15.5077C26.5686 15.5099 27.6442 15.4963 28.7175 15.5122C29.3877 15.5213 29.5961 15.7409 29.6006 16.4134C29.6096 18.1502 29.5462 19.8915 29.6368 21.6238C29.6798 22.4344 29.8927 23.2881 30.2414 24.0217C30.9773 25.5728 32.8704 26.3835 34.6615 26.0642C36.6587 25.7087 37.895 24.4678 38.1871 22.5069C38.2528 22.0631 38.289 21.6124 38.3003 21.1641C38.3162 20.6161 38.554 20.3217 39.1178 20.3217C40.2364 20.324 41.3527 20.324 42.4691 20.3217C42.9174 20.3195 43.2548 20.4938 43.2752 20.9626C43.4133 23.9017 42.4827 27.8123 38.7102 29.7416Z" fill="#09478A"/>
<path d="M33.7895 13.4153C32.415 13.4153 31.0405 13.4199 29.666 13.4153C26.8922 13.404 24.6686 11.1872 24.6663 8.43369C24.664 5.96778 24.6663 3.50187 24.6663 1.03595C24.6663 0.218513 24.8769 0.00792533 25.6898 0.00339657C26.6567 -0.00113219 27.6236 -0.00113219 28.5882 0.00339657C29.3581 0.00792533 29.5913 0.234363 29.5936 0.990667C29.5981 3.26411 29.6094 5.53528 29.5845 7.80872C29.5777 8.33858 29.7385 8.50841 30.2752 8.50388C32.8951 8.48124 35.5149 8.49256 38.1348 8.49483C38.984 8.49483 39.1402 8.65333 39.1447 9.51153C39.1493 10.4762 39.1493 11.4408 39.1447 12.4054C39.1402 13.2206 38.9432 13.4131 38.1054 13.4153C36.6675 13.4176 35.2274 13.4153 33.7895 13.4153Z" fill="#F08219"/>
</svg>
