<svg width="24" height="24" viewBox="0 0 24 24" fill="none" xmlns="http://www.w3.org/2000/svg">
<g filter="url(#filter0_d_1457_3679)">
<path fill-rule="evenodd" clip-rule="evenodd" d="M8.80194 16.3708C11.5754 18.3584 15.4996 18.1104 17.9833 15.6491C20.7061 12.9509 20.6668 8.61452 17.8955 5.9635C15.1242 3.31249 10.6703 3.35074 7.94749 6.04896C5.71416 8.26212 5.3391 11.5774 6.80568 14.1607L3.43215 17.5037C2.84868 18.0819 2.85711 19.0112 3.45096 19.5793C4.04481 20.1473 4.99922 20.1391 5.58268 19.5609L8.80194 16.3708ZM15.8328 13.5919C14.2769 15.1338 11.7318 15.1556 10.1482 13.6408C8.56461 12.1259 8.54215 9.64796 10.0981 8.1061C11.654 6.56428 14.199 6.54239 15.7826 8.05725C17.3663 9.57214 17.3887 12.0501 15.8328 13.5919Z" fill="white"/>
</g>
<defs>
<filter id="filter0_d_1457_3679" x="2" y="3" width="21" height="20" filterUnits="userSpaceOnUse" color-interpolation-filters="sRGB">
<feFlood flood-opacity="0" result="BackgroundImageFix"/>
<feColorMatrix in="SourceAlpha" type="matrix" values="0 0 0 0 0 0 0 0 0 0 0 0 0 0 0 0 0 0 127 0" result="hardAlpha"/>
<feOffset dx="1" dy="1"/>
<feGaussianBlur stdDeviation="1"/>
<feComposite in2="hardAlpha" operator="out"/>
<feColorMatrix type="matrix" values="0 0 0 0 0 0 0 0 0 0 0 0 0 0 0 0 0 0 0.25 0"/>
<feBlend mode="normal" in2="BackgroundImageFix" result="effect1_dropShadow_1457_3679"/>
<feBlend mode="normal" in="SourceGraphic" in2="effect1_dropShadow_1457_3679" result="shape"/>
</filter>
</defs>
</svg>
